# Blender v2.91.0 OBJ File: ''
# www.blender.org
mtllib rotate_frame.mtl
o 柱体.001_柱体.004
v -0.707400 -0.042360 0.703278
v -0.557688 0.040546 0.829831
v -0.557688 -0.042360 0.829831
v -0.707400 -0.110409 0.703278
v -0.707447 0.108869 0.703229
v -0.684919 -0.362946 0.540958
v -0.707400 0.040546 0.703278
v -0.684919 -0.362946 0.540958
v 0.707107 0.041453 0.707107
v 0.707107 -0.041453 0.707107
v 0.831470 0.041453 0.555570
v 0.831470 -0.041453 0.555570
v 0.923880 0.041453 0.382683
v 0.923880 -0.041453 0.382683
v 0.980785 0.041453 0.195090
v 0.980785 -0.041453 0.195090
v 1.000000 0.041453 0.000000
v 1.000000 -0.041453 -0.000000
v 0.980785 0.041453 -0.195090
v 0.980785 -0.041453 -0.195090
v 0.923880 0.041453 -0.382683
v 0.923880 -0.041453 -0.382683
v 0.831470 0.041453 -0.555570
v 0.831470 -0.041453 -0.555570
v 0.707107 0.041453 -0.707107
v 0.707107 -0.041453 -0.707107
v 0.555570 0.041453 -0.831470
v 0.555570 -0.041453 -0.831470
v 0.382684 -0.041453 -0.923879
v 0.195090 0.041453 -0.980785
v 0.195090 -0.041453 -0.980785
v -0.000000 0.041453 -1.000000
v 0.000000 -0.041453 -1.000000
v -0.195090 0.041453 -0.980785
v -0.195090 -0.041453 -0.980785
v -0.382684 0.041453 -0.923879
v -0.382684 -0.041453 -0.923879
v -0.555570 0.041453 -0.831469
v -0.555570 -0.041453 -0.831469
v -0.707107 0.041453 -0.707107
v -0.707107 -0.041453 -0.707107
v -0.831470 0.041453 -0.555570
v -0.831470 -0.041453 -0.555570
v -0.923880 0.041453 -0.382683
v -0.923880 -0.041453 -0.382683
v -0.980785 0.041453 -0.195090
v -0.980785 -0.041453 -0.195090
v -1.000000 0.041453 0.000001
v -1.000000 -0.041453 0.000001
v -0.980785 0.041453 0.195091
v -0.980785 -0.041453 0.195091
v -0.923879 0.041453 0.382684
v -0.923879 -0.041453 0.382684
v -0.831469 0.041453 0.555571
v -0.831469 -0.041453 0.555571
v -0.707106 0.041453 0.707107
v -0.707106 -0.041453 0.707107
v -0.555569 0.041453 0.831470
v -0.555569 -0.041453 0.831470
v -0.382682 0.041453 0.923880
v -0.382682 -0.041453 0.923880
v -0.195089 0.041453 0.980785
v -0.195089 -0.041453 0.980785
v 0.000001 0.041453 1.000000
v 0.000001 -0.041453 1.000000
v 0.195092 0.041453 0.980785
v 0.195092 -0.041453 0.980785
v 0.382685 0.041453 0.923879
v 0.382685 -0.041453 0.923879
v 0.555571 0.041453 0.831469
v 0.555571 -0.041453 0.831469
v 0.707107 -0.109501 -0.707107
v 0.707155 0.109776 -0.707059
v 0.555570 0.041453 -0.831470
v 0.707107 0.041453 -0.707107
v 0.555570 0.041453 -0.831470
v 0.652842 -0.142242 -0.356078
vt 0.750000 0.500000
vt 0.718750 0.500000
vt 0.750000 0.500000
vt 0.750000 1.000000
vt 0.750000 1.000000
vt 0.718750 1.000000
vt 0.937500 1.000000
vt 0.968750 0.500000
vt 0.968750 1.000000
vt 0.906250 1.000000
vt 0.937500 0.500000
vt 0.875000 1.000000
vt 0.906250 0.500000
vt 0.843750 1.000000
vt 0.875000 0.500000
vt 0.812500 1.000000
vt 0.843750 0.500000
vt 0.781250 1.000000
vt 0.812500 0.500000
vt 0.750000 0.500000
vt 0.718750 0.500000
vt 0.750000 0.500000
vt 0.750000 0.500000
vt 0.781250 0.500000
vt 0.718750 1.000000
vt 0.718750 0.500000
vt 0.625000 1.000000
vt 0.656250 0.500000
vt 0.656250 1.000000
vt 0.593750 1.000000
vt 0.625000 0.500000
vt 0.562500 1.000000
vt 0.593750 0.500000
vt 0.531250 1.000000
vt 0.562500 0.500000
vt 0.500000 1.000000
vt 0.531250 0.500000
vt 0.468750 1.000000
vt 0.500000 0.500000
vt 0.437500 1.000000
vt 0.468750 0.500000
vt 0.406250 1.000000
vt 0.437500 0.500000
vt 0.375000 1.000000
vt 0.406250 0.500000
vt 0.343750 1.000000
vt 0.375000 0.500000
vt 0.031250 1.000000
vt 0.062500 0.500000
vt 0.062500 1.000000
vt 0.093750 0.500000
vt 0.093750 1.000000
vt 0.250000 1.000000
vt 0.281250 0.500000
vt 0.281250 1.000000
vt 0.218750 1.000000
vt 0.250000 0.500000
vt 0.187500 1.000000
vt 0.218750 0.500000
vt 0.156250 1.000000
vt 0.187500 0.500000
vt 0.125000 1.000000
vt 0.156250 0.500000
vt 0.125000 0.500000
vt 0.000000 1.000000
vt 0.031250 0.500000
vt 0.312500 0.500000
vt 0.312500 1.000000
vt 0.343750 0.500000
vt 0.750000 1.000000
vt 0.718750 0.500000
vt 1.000000 0.500000
vt 1.000000 1.000000
vt 0.750000 1.000000
vt 0.000000 0.500000
vt 0.687500 1.000000
vn -0.6456 0.0001 0.7637
vn -0.6456 0.0000 0.7637
vn 0.8819 0.0000 0.4714
vn 0.9569 0.0000 0.2903
vn 0.9952 -0.0000 0.0980
vn 0.9952 -0.0000 -0.0980
vn 0.9569 -0.0000 -0.2903
vn 0.8819 0.0000 -0.4714
vn 0.6344 0.0001 -0.7730
vn 0.7730 0.0000 -0.6344
vn 0.0000 0.0000 1.0000
vn 0.0980 0.0000 -0.9952
vn -0.0980 -0.0000 -0.9952
vn -0.2903 -0.0000 -0.9569
vn -0.4714 0.0000 -0.8819
vn -0.6344 0.0000 -0.7730
vn -0.7730 0.0000 -0.6344
vn -0.8819 0.0000 -0.4714
vn -0.9569 0.0000 -0.2903
vn -0.9952 0.0000 -0.0980
vn -0.9952 0.0000 0.0980
vn 0.4714 0.0000 0.8819
vn 0.2903 0.0000 0.9569
vn -0.7730 0.0000 0.6344
vn -0.6344 0.0000 0.7730
vn -0.4714 0.0000 0.8819
vn -0.2903 0.0000 0.9569
vn -0.0980 -0.0000 0.9952
vn 0.0980 0.0000 0.9952
vn 0.6344 0.0000 0.7730
vn -0.8819 0.0000 0.4714
vn -0.9569 -0.0000 0.2903
vn 0.7730 0.0000 0.6344
vn 0.6344 0.0000 -0.7730
vn 0.4714 0.0000 -0.8819
vn 0.2903 0.0000 -0.9569
vn 0.3728 0.2258 -0.9000
usemtl 材质
s off
f 7/1/1 2/2/1 5/3/1
f 7/1/2 1/4/2 2/2/2
f 1/4/2 4/5/2 3/6/2
f 2/2/2 1/4/2 3/6/2
f 14/7/3 11/8/3 12/9/3
f 16/10/4 13/11/4 14/7/4
f 18/12/5 15/13/5 16/10/5
f 20/14/6 17/15/6 18/12/6
f 22/16/7 19/17/7 20/14/7
f 24/18/8 21/19/8 22/16/8
f 75/20/9 27/21/9 73/22/9
f 24/18/10 25/23/10 23/24/10
f 28/25/11 76/26/11 27/21/11
f 33/27/12 30/28/12 31/29/12
f 35/30/13 32/31/13 33/27/13
f 37/32/14 34/33/14 35/30/14
f 39/34/15 36/35/15 37/32/15
f 41/36/16 38/37/16 39/34/16
f 43/38/17 40/39/17 41/36/17
f 45/40/18 42/41/18 43/38/18
f 47/42/19 44/43/19 45/40/19
f 49/44/20 46/45/20 47/42/20
f 51/46/21 48/47/21 49/44/21
f 71/48/22 68/49/22 69/50/22
f 69/50/23 66/51/23 67/52/23
f 57/53/24 54/54/24 55/55/24
f 59/56/25 56/57/25 57/53/25
f 61/58/26 58/59/26 59/56/26
f 63/60/27 60/61/27 61/58/27
f 65/62/28 62/63/28 63/60/28
f 67/52/29 64/64/29 65/62/29
f 10/65/30 70/66/30 71/48/30
f 55/55/31 52/67/31 53/68/31
f 53/68/32 50/69/32 51/46/32
f 24/18/10 26/70/10 75/20/10
f 30/28/11 27/21/11 74/71/11
f 14/7/3 13/11/3 11/8/3
f 24/18/11 75/20/11 25/23/11
f 12/9/33 9/72/33 10/73/33
f 16/10/4 15/13/4 13/11/4
f 18/12/5 17/15/5 15/13/5
f 20/14/6 19/17/6 17/15/6
f 22/16/7 21/19/7 19/17/7
f 24/18/8 23/24/8 21/19/8
f 76/26/11 74/71/11 27/21/11
f 75/20/34 26/70/34 27/21/34
f 26/70/34 72/74/34 28/25/34
f 27/21/34 26/70/34 28/25/34
f 33/27/12 32/31/12 30/28/12
f 35/30/13 34/33/13 32/31/13
f 37/32/14 36/35/14 34/33/14
f 39/34/15 38/37/15 36/35/15
f 41/36/16 40/39/16 38/37/16
f 43/38/17 42/41/17 40/39/17
f 45/40/18 44/43/18 42/41/18
f 47/42/19 46/45/19 44/43/19
f 49/44/20 48/47/20 46/45/20
f 51/46/21 50/69/21 48/47/21
f 71/48/22 70/66/22 68/49/22
f 69/50/23 68/49/23 66/51/23
f 57/53/24 56/57/24 54/54/24
f 59/56/25 58/59/25 56/57/25
f 61/58/26 60/61/26 58/59/26
f 63/60/27 62/63/27 60/61/27
f 65/62/28 64/64/28 62/63/28
f 67/52/29 66/51/29 64/64/29
f 10/65/30 9/75/30 70/66/30
f 55/55/31 54/54/31 52/67/31
f 53/68/32 52/67/32 50/69/32
f 28/25/35 29/76/35 74/71/35
f 29/76/36 31/29/36 30/28/36
f 74/71/37 29/76/37 30/28/37
f 12/9/33 11/8/33 9/72/33
l 6 8
o 柱体.002_柱体.005
v -0.703182 0.707496 -0.042360
v -0.829755 0.557801 0.040546
v -0.829755 0.557801 -0.042360
v -0.703182 0.707496 -0.110408
v -0.703133 0.707543 0.108869
v -0.540865 0.684993 -0.362946
v -0.703182 0.707496 0.040546
v -0.540865 0.684993 -0.362946
v -0.707203 -0.707011 0.041453
v -0.707203 -0.707011 -0.041453
v -0.555683 -0.831394 0.041453
v -0.555683 -0.831394 -0.041453
v -0.382809 -0.923828 0.041453
v -0.382809 -0.923828 -0.041453
v -0.195224 -0.980759 0.041453
v -0.195224 -0.980759 -0.041453
v -0.000136 -1.000000 0.041453
v -0.000136 -1.000000 -0.041453
v 0.194957 -0.980812 0.041453
v 0.194957 -0.980812 -0.041453
v 0.382558 -0.923931 0.041453
v 0.382558 -0.923931 -0.041453
v 0.555457 -0.831545 0.041453
v 0.555457 -0.831545 -0.041453
v 0.707011 -0.707203 0.041453
v 0.707011 -0.707203 -0.041453
v 0.831394 -0.555683 0.041453
v 0.831394 -0.555683 -0.041453
v 0.923827 -0.382809 -0.041453
v 0.980759 -0.195224 0.041453
v 0.980759 -0.195224 -0.041453
v 1.000000 -0.000136 0.041453
v 1.000000 -0.000136 -0.041453
v 0.980812 0.194957 0.041453
v 0.980812 0.194957 -0.041453
v 0.923931 0.382558 0.041453
v 0.923931 0.382558 -0.041453
v 0.831545 0.555457 0.041453
v 0.831545 0.555457 -0.041453
v 0.707203 0.707011 0.041453
v 0.707203 0.707011 -0.041453
v 0.555683 0.831394 0.041453
v 0.555683 0.831394 -0.041453
v 0.382809 0.923828 0.041453
v 0.382809 0.923828 -0.041453
v 0.195223 0.980759 0.041453
v 0.195223 0.980759 -0.041453
v 0.000135 1.000000 0.041453
v 0.000135 1.000000 -0.041453
v -0.194958 0.980812 0.041453
v -0.194958 0.980812 -0.041453
v -0.382559 0.923931 0.041453
v -0.382559 0.923931 -0.041453
v -0.555458 0.831545 0.041453
v -0.555458 0.831545 -0.041453
v -0.707011 0.707202 0.041453
v -0.707011 0.707202 -0.041453
v -0.831395 0.555682 0.041453
v -0.831395 0.555682 -0.041453
v -0.923828 0.382808 0.041453
v -0.923828 0.382808 -0.041453
v -0.980759 0.195222 0.041453
v -0.980759 0.195222 -0.041453
v -1.000000 0.000135 0.041453
v -1.000000 0.000135 -0.041453
v -0.980812 -0.194958 0.041453
v -0.980812 -0.194958 -0.041453
v -0.923931 -0.382559 0.041453
v -0.923931 -0.382559 -0.041453
v -0.831544 -0.555459 0.041453
v -0.831544 -0.555459 -0.041453
v 0.707011 -0.707203 -0.109501
v 0.706963 -0.707251 0.109776
v 0.831394 -0.555683 0.041453
v 0.707011 -0.707203 0.041453
v 0.831394 -0.555683 0.041453
v 0.355990 -0.652891 -0.142242
vt 0.750000 0.500000
vt 0.718750 0.500000
vt 0.750000 0.500000
vt 0.750000 1.000000
vt 0.750000 1.000000
vt 0.718750 1.000000
vt 0.937500 1.000000
vt 0.968750 0.500000
vt 0.968750 1.000000
vt 0.906250 1.000000
vt 0.937500 0.500000
vt 0.875000 1.000000
vt 0.906250 0.500000
vt 0.843750 1.000000
vt 0.875000 0.500000
vt 0.812500 1.000000
vt 0.843750 0.500000
vt 0.781250 1.000000
vt 0.812500 0.500000
vt 0.750000 0.500000
vt 0.718750 0.500000
vt 0.750000 0.500000
vt 0.750000 0.500000
vt 0.781250 0.500000
vt 0.718750 1.000000
vt 0.718750 0.500000
vt 0.625000 1.000000
vt 0.656250 0.500000
vt 0.656250 1.000000
vt 0.593750 1.000000
vt 0.625000 0.500000
vt 0.562500 1.000000
vt 0.593750 0.500000
vt 0.531250 1.000000
vt 0.562500 0.500000
vt 0.500000 1.000000
vt 0.531250 0.500000
vt 0.468750 1.000000
vt 0.500000 0.500000
vt 0.437500 1.000000
vt 0.468750 0.500000
vt 0.406250 1.000000
vt 0.437500 0.500000
vt 0.375000 1.000000
vt 0.406250 0.500000
vt 0.343750 1.000000
vt 0.375000 0.500000
vt 0.031250 1.000000
vt 0.062500 0.500000
vt 0.062500 1.000000
vt 0.093750 0.500000
vt 0.093750 1.000000
vt 0.250000 1.000000
vt 0.281250 0.500000
vt 0.281250 1.000000
vt 0.218750 1.000000
vt 0.250000 0.500000
vt 0.187500 1.000000
vt 0.218750 0.500000
vt 0.156250 1.000000
vt 0.187500 0.500000
vt 0.125000 1.000000
vt 0.156250 0.500000
vt 0.125000 0.500000
vt 0.000000 1.000000
vt 0.031250 0.500000
vt 0.312500 0.500000
vt 0.312500 1.000000
vt 0.343750 0.500000
vt 0.750000 1.000000
vt 0.718750 0.500000
vt 1.000000 0.500000
vt 1.000000 1.000000
vt 0.750000 1.000000
vt 0.000000 0.500000
vt 0.687500 1.000000
vn -0.7636 0.6457 0.0001
vn -0.7636 0.6457 0.0000
vn -0.4715 -0.8819 0.0000
vn -0.2904 -0.9569 0.0000
vn -0.0982 -0.9952 0.0000
vn 0.0979 -0.9952 0.0000
vn 0.2902 -0.9570 0.0000
vn 0.4713 -0.8820 0.0000
vn 0.7729 -0.6345 0.0001
vn 0.6343 -0.7731 0.0000
vn 0.0000 0.0000 1.0000
vn 0.9952 -0.0982 0.0000
vn 0.9952 0.0979 0.0000
vn 0.9570 0.2902 0.0000
vn 0.8820 0.4713 0.0000
vn 0.7731 0.6343 0.0000
vn 0.6345 0.7729 0.0000
vn 0.4715 0.8819 0.0000
vn 0.2904 0.9569 0.0000
vn 0.0982 0.9952 0.0000
vn -0.0979 0.9952 -0.0000
vn -0.8820 -0.4713 0.0000
vn -0.9570 -0.2902 0.0000
vn -0.6343 0.7731 0.0000
vn -0.7729 0.6345 0.0000
vn -0.8819 0.4715 0.0000
vn -0.9569 0.2904 0.0000
vn -0.9952 0.0982 0.0000
vn -0.9952 -0.0979 0.0000
vn -0.7731 -0.6343 0.0000
vn -0.4713 0.8820 0.0000
vn -0.2902 0.9570 0.0000
vn -0.6345 -0.7729 0.0000
vn 0.7729 -0.6345 0.0000
vn 0.8819 -0.4715 0.0000
vn 0.9569 -0.2904 0.0000
vn 0.9000 -0.3729 0.2258
usemtl 材质.001
s off
f 84/77/38 79/78/38 82/79/38
f 84/77/39 78/80/39 79/78/39
f 78/80/39 81/81/39 80/82/39
f 79/78/39 78/80/39 80/82/39
f 91/83/40 88/84/40 89/85/40
f 93/86/41 90/87/41 91/83/41
f 95/88/42 92/89/42 93/86/42
f 97/90/43 94/91/43 95/88/43
f 99/92/44 96/93/44 97/90/44
f 101/94/45 98/95/45 99/92/45
f 152/96/46 104/97/46 150/98/46
f 101/94/47 102/99/47 100/100/47
f 105/101/48 153/102/48 104/97/48
f 110/103/49 107/104/49 108/105/49
f 112/106/50 109/107/50 110/103/50
f 114/108/51 111/109/51 112/106/51
f 116/110/52 113/111/52 114/108/52
f 118/112/53 115/113/53 116/110/53
f 120/114/54 117/115/54 118/112/54
f 122/116/55 119/117/55 120/114/55
f 124/118/56 121/119/56 122/116/56
f 126/120/57 123/121/57 124/118/57
f 128/122/58 125/123/58 126/120/58
f 148/124/59 145/125/59 146/126/59
f 146/126/60 143/127/60 144/128/60
f 134/129/61 131/130/61 132/131/61
f 136/132/62 133/133/62 134/129/62
f 138/134/63 135/135/63 136/132/63
f 140/136/64 137/137/64 138/134/64
f 142/138/65 139/139/65 140/136/65
f 144/128/66 141/140/66 142/138/66
f 87/141/67 147/142/67 148/124/67
f 132/131/68 129/143/68 130/144/68
f 130/144/69 127/145/69 128/122/69
f 101/94/47 103/146/47 152/96/47
f 107/104/48 104/97/48 151/147/48
f 91/83/40 90/87/40 88/84/40
f 101/94/48 152/96/48 102/99/48
f 89/85/70 86/148/70 87/149/70
f 93/86/41 92/89/41 90/87/41
f 95/88/42 94/91/42 92/89/42
f 97/90/43 96/93/43 94/91/43
f 99/92/44 98/95/44 96/93/44
f 101/94/45 100/100/45 98/95/45
f 153/102/48 151/147/48 104/97/48
f 152/96/71 103/146/71 104/97/71
f 103/146/71 149/150/71 105/101/71
f 104/97/71 103/146/71 105/101/71
f 110/103/49 109/107/49 107/104/49
f 112/106/50 111/109/50 109/107/50
f 114/108/51 113/111/51 111/109/51
f 116/110/52 115/113/52 113/111/52
f 118/112/53 117/115/53 115/113/53
f 120/114/54 119/117/54 117/115/54
f 122/116/55 121/119/55 119/117/55
f 124/118/56 123/121/56 121/119/56
f 126/120/57 125/123/57 123/121/57
f 128/122/58 127/145/58 125/123/58
f 148/124/59 147/142/59 145/125/59
f 146/126/60 145/125/60 143/127/60
f 134/129/61 133/133/61 131/130/61
f 136/132/62 135/135/62 133/133/62
f 138/134/63 137/137/63 135/135/63
f 140/136/64 139/139/64 137/137/64
f 142/138/65 141/140/65 139/139/65
f 144/128/66 143/127/66 141/140/66
f 87/141/67 86/151/67 147/142/67
f 132/131/68 131/130/68 129/143/68
f 130/144/69 129/143/69 127/145/69
f 105/101/72 106/152/72 151/147/72
f 106/152/73 108/105/73 107/104/73
f 151/147/74 106/152/74 107/104/74
f 89/85/70 88/84/70 86/148/70
l 83 85
o 柱体.003_柱体.006
v 0.042493 0.703274 0.707396
v -0.040415 0.829834 0.557692
v 0.042491 0.829827 0.557684
v 0.110541 0.703267 0.707390
v -0.108736 0.703239 0.707458
v 0.363062 0.540925 0.684884
v -0.040413 0.703281 0.707404
v 0.363062 0.540925 0.684884
v -0.041455 0.707111 -0.707103
v 0.041451 0.707103 -0.707111
v -0.041481 0.555574 -0.831466
v 0.041425 0.555566 -0.831474
v -0.041506 0.382687 -0.923876
v 0.041400 0.382680 -0.923883
v -0.041529 0.195094 -0.980781
v 0.041377 0.195086 -0.980789
v -0.041549 0.000004 -0.999996
v 0.041357 -0.000004 -1.000004
v -0.041565 -0.195087 -0.980781
v 0.041341 -0.195094 -0.980789
v -0.041577 -0.382680 -0.923876
v 0.041329 -0.382687 -0.923883
v -0.041584 -0.555566 -0.831466
v 0.041322 -0.555574 -0.831474
v -0.041587 -0.707103 -0.707103
v 0.041320 -0.707111 -0.707111
v -0.041583 -0.831466 -0.555566
v 0.041323 -0.831473 -0.555574
v 0.041331 -0.923883 -0.382688
v -0.041563 -0.980781 -0.195086
v 0.041343 -0.980789 -0.195094
v -0.041546 -0.999996 0.000004
v 0.041360 -1.000004 -0.000004
v -0.041525 -0.980781 0.195094
v 0.041381 -0.980789 0.195086
v -0.041502 -0.923876 0.382688
v 0.041404 -0.923883 0.382680
v -0.041477 -0.831466 0.555574
v 0.041429 -0.831473 0.555566
v -0.041451 -0.707103 0.707111
v 0.041455 -0.707110 0.707103
v -0.041425 -0.555566 0.831474
v 0.041481 -0.555574 0.831466
v -0.041400 -0.382679 0.923884
v 0.041506 -0.382687 0.923876
v -0.041377 -0.195086 0.980789
v 0.041529 -0.195094 0.980781
v -0.041357 0.000004 1.000004
v 0.041549 -0.000003 0.999996
v -0.041341 0.195095 0.980789
v 0.041565 0.195087 0.980781
v -0.041329 0.382688 0.923883
v 0.041577 0.382680 0.923875
v -0.041322 0.555575 0.831473
v 0.041584 0.555567 0.831465
v -0.041320 0.707111 0.707110
v 0.041587 0.707104 0.707102
v -0.041323 0.831474 0.555573
v 0.041583 0.831466 0.555565
v -0.041331 0.923884 0.382686
v 0.041575 0.923876 0.382678
v -0.041343 0.980789 0.195093
v 0.041563 0.980782 0.195085
v -0.041360 1.000004 0.000003
v 0.041546 0.999996 -0.000005
v -0.041381 0.980789 -0.195088
v 0.041525 0.980781 -0.195096
v -0.041404 0.923883 -0.382681
v 0.041502 0.923875 -0.382689
v -0.041429 0.831473 -0.555568
v 0.041477 0.831465 -0.555575
v 0.109368 -0.707117 -0.707117
v -0.109909 -0.707049 -0.707144
v -0.041583 -0.831466 -0.555566
v -0.041587 -0.707103 -0.707103
v -0.041583 -0.831466 -0.555566
v 0.142146 -0.356092 -0.652856
vt 0.750000 0.500000
vt 0.718750 0.500000
vt 0.750000 0.500000
vt 0.750000 1.000000
vt 0.750000 1.000000
vt 0.718750 1.000000
vt 0.937500 1.000000
vt 0.968750 0.500000
vt 0.968750 1.000000
vt 0.906250 1.000000
vt 0.937500 0.500000
vt 0.875000 1.000000
vt 0.906250 0.500000
vt 0.843750 1.000000
vt 0.875000 0.500000
vt 0.812500 1.000000
vt 0.843750 0.500000
vt 0.781250 1.000000
vt 0.812500 0.500000
vt 0.750000 0.500000
vt 0.718750 0.500000
vt 0.750000 0.500000
vt 0.750000 0.500000
vt 0.781250 0.500000
vt 0.718750 1.000000
vt 0.718750 0.500000
vt 0.625000 1.000000
vt 0.656250 0.500000
vt 0.656250 1.000000
vt 0.593750 1.000000
vt 0.625000 0.500000
vt 0.562500 1.000000
vt 0.593750 0.500000
vt 0.531250 1.000000
vt 0.562500 0.500000
vt 0.500000 1.000000
vt 0.531250 0.500000
vt 0.468750 1.000000
vt 0.500000 0.500000
vt 0.437500 1.000000
vt 0.468750 0.500000
vt 0.406250 1.000000
vt 0.437500 0.500000
vt 0.375000 1.000000
vt 0.406250 0.500000
vt 0.343750 1.000000
vt 0.375000 0.500000
vt 0.031250 1.000000
vt 0.062500 0.500000
vt 0.062500 1.000000
vt 0.093750 0.500000
vt 0.093750 1.000000
vt 0.250000 1.000000
vt 0.281250 0.500000
vt 0.281250 1.000000
vt 0.218750 1.000000
vt 0.250000 0.500000
vt 0.187500 1.000000
vt 0.218750 0.500000
vt 0.156250 1.000000
vt 0.187500 0.500000
vt 0.125000 1.000000
vt 0.156250 0.500000
vt 0.125000 0.500000
vt 0.000000 1.000000
vt 0.031250 0.500000
vt 0.312500 0.500000
vt 0.312500 1.000000
vt 0.343750 0.500000
vt 0.750000 1.000000
vt 0.718750 0.500000
vt 1.000000 0.500000
vt 1.000000 1.000000
vt 0.750000 1.000000
vt 0.000000 0.500000
vt 0.687500 1.000000
vn 0.0000 0.7637 0.6456
vn 0.0001 0.7637 0.6456
vn -0.0000 0.4714 -0.8819
vn -0.0001 0.2903 -0.9569
vn -0.0001 0.0980 -0.9952
vn -0.0001 -0.0980 -0.9952
vn -0.0001 -0.2903 -0.9569
vn -0.0001 -0.4714 -0.8819
vn -0.0002 -0.7730 -0.6344
vn -0.0001 -0.6344 -0.7730
vn 0.0000 0.0000 1.0000
vn -0.0001 -0.9952 -0.0980
vn -0.0001 -0.9952 0.0980
vn -0.0001 -0.9569 0.2903
vn -0.0000 -0.8819 0.4714
vn -0.0000 -0.7730 0.6344
vn 0.0000 -0.6344 0.7730
vn 0.0000 -0.4714 0.8819
vn 0.0001 -0.2903 0.9569
vn 0.0001 -0.0980 0.9952
vn 0.0001 0.0980 0.9952
vn 0.0000 0.8819 -0.4714
vn 0.0001 0.9569 -0.2903
vn 0.0001 0.6344 0.7730
vn 0.0001 0.7730 0.6344
vn 0.0001 0.8819 0.4714
vn 0.0001 0.9569 0.2903
vn 0.0001 0.9952 0.0980
vn 0.0001 0.9952 -0.0980
vn 0.0000 0.7730 -0.6344
vn 0.0001 0.4714 0.8819
vn 0.0001 0.2903 0.9569
vn -0.0000 0.6344 -0.7730
vn -0.0001 -0.7730 -0.6344
vn -0.0001 -0.8819 -0.4714
vn -0.0001 -0.9569 -0.2903
vn -0.2259 -0.9000 -0.3728
usemtl 材质.002
s off
f 161/153/75 156/154/75 159/155/75
f 161/153/76 155/156/76 156/154/76
f 155/156/76 158/157/76 157/158/76
f 156/154/76 155/156/76 157/158/76
f 168/159/77 165/160/77 166/161/77
f 170/162/78 167/163/78 168/159/78
f 172/164/79 169/165/79 170/162/79
f 174/166/80 171/167/80 172/164/80
f 176/168/81 173/169/81 174/166/81
f 178/170/82 175/171/82 176/168/82
f 229/172/83 181/173/83 227/174/83
f 178/170/84 179/175/84 177/176/84
f 182/177/85 230/178/85 181/173/85
f 187/179/86 184/180/86 185/181/86
f 189/182/87 186/183/87 187/179/87
f 191/184/88 188/185/88 189/182/88
f 193/186/89 190/187/89 191/184/89
f 195/188/90 192/189/90 193/186/90
f 197/190/91 194/191/91 195/188/91
f 199/192/92 196/193/92 197/190/92
f 201/194/93 198/195/93 199/192/93
f 203/196/94 200/197/94 201/194/94
f 205/198/95 202/199/95 203/196/95
f 225/200/96 222/201/96 223/202/96
f 223/202/97 220/203/97 221/204/97
f 211/205/98 208/206/98 209/207/98
f 213/208/99 210/209/99 211/205/99
f 215/210/100 212/211/100 213/208/100
f 217/212/101 214/213/101 215/210/101
f 219/214/102 216/215/102 217/212/102
f 221/204/103 218/216/103 219/214/103
f 164/217/104 224/218/104 225/200/104
f 209/207/105 206/219/105 207/220/105
f 207/220/106 204/221/106 205/198/106
f 178/170/84 180/222/84 229/172/84
f 184/180/85 181/173/85 228/223/85
f 168/159/77 167/163/77 165/160/77
f 178/170/85 229/172/85 179/175/85
f 166/161/107 163/224/107 164/225/107
f 170/162/78 169/165/78 167/163/78
f 172/164/79 171/167/79 169/165/79
f 174/166/80 173/169/80 171/167/80
f 176/168/81 175/171/81 173/169/81
f 178/170/82 177/176/82 175/171/82
f 230/178/85 228/223/85 181/173/85
f 229/172/108 180/222/108 181/173/108
f 180/222/108 226/226/108 182/177/108
f 181/173/108 180/222/108 182/177/108
f 187/179/86 186/183/86 184/180/86
f 189/182/87 188/185/87 186/183/87
f 191/184/88 190/187/88 188/185/88
f 193/186/89 192/189/89 190/187/89
f 195/188/90 194/191/90 192/189/90
f 197/190/91 196/193/91 194/191/91
f 199/192/92 198/195/92 196/193/92
f 201/194/93 200/197/93 198/195/93
f 203/196/94 202/199/94 200/197/94
f 205/198/95 204/221/95 202/199/95
f 225/200/96 224/218/96 222/201/96
f 223/202/97 222/201/97 220/203/97
f 211/205/98 210/209/98 208/206/98
f 213/208/99 212/211/99 210/209/99
f 215/210/100 214/213/100 212/211/100
f 217/212/101 216/215/101 214/213/101
f 219/214/102 218/216/102 216/215/102
f 221/204/103 220/203/103 218/216/103
f 164/217/104 163/227/104 224/218/104
f 209/207/105 208/206/105 206/219/105
f 207/220/106 206/219/106 204/221/106
f 182/177/109 183/228/109 228/223/109
f 183/228/110 185/181/110 184/180/110
f 228/223/111 183/228/111 184/180/111
f 166/161/107 165/160/107 163/224/107
l 160 162
