# Made in Blockbench 4.8.3
mtllib sorcery_extractor.mtl

o core
v 0.5 0.4375 0.5
v 0.5 1 0.5
v 0.5386751345948129 0.5625 0.5625
v 0.5386751345948129 0.8125 0.5625
v 0.5773502691896257 0.5625 0.5
v 0.5773502691896257 0.8125 0.5
v 0.5386751345948129 0.5625 0.4375
v 0.5386751345948129 0.8125 0.4375
v 0.46132486540518713 0.5625 0.4375
v 0.46132486540518713 0.8125 0.4375
v 0.42264973081037427 0.5625 0.5
v 0.42264973081037427 0.8125 0.5
v 0.46132486540518713 0.5625 0.5625
v 0.46132486540518713 0.8125 0.5625
vt 0.03125 0.20032499999999998
vt 0.0128765625 0.20032499999999998
vt 0.021075000000000003 0.16501406250000006
vt 0.0128765625 0.20032499999999998
vt 0.03125 0.20032499999999998
vt 0.03125 0.262825
vt 0.0128765625 0.262825
vt 0.012876562500000003 0.262825
vt 0.03125 0.262825
vt 0.021075000000000003 0.3125
vt 0.0652484375 0.20032499999999998
vt 0.046875 0.20032499999999998
vt 0.057050000000000003 0.16501406250000006
vt 0.046875 0.20032499999999998
vt 0.0652484375 0.20032499999999998
vt 0.0652484375 0.262825
vt 0.046875 0.262825
vt 0.046875 0.262825
vt 0.0652484375 0.262825
vt 0.057050000000000003 0.3125
vt 0.19716875 0.356840625
vt 0.17783125 0.356840625
vt 0.1875 0.32190312499999996
vt 0.17783125 0.356840625
vt 0.19716875 0.356840625
vt 0.19716875 0.419340625
vt 0.17783125 0.419340625
vt 0.17783125 0.419340625
vt 0.19716875 0.419340625
vt 0.1875 0.46875
vt 0.703125 0.27845
vt 0.6847515625 0.27845
vt 0.69295 0.24313906250000006
vt 0.6847515625 0.27845
vt 0.703125 0.27845
vt 0.703125 0.34095
vt 0.6847515625 0.34095
vt 0.6847515625 0.34095
vt 0.703125 0.34095
vt 0.69295 0.390625
vt 0.1121234375 0.20032499999999998
vt 0.09375 0.20032499999999998
vt 0.103925 0.16501406250000006
vt 0.09375 0.20032499999999998
vt 0.1121234375 0.20032499999999998
vt 0.1121234375 0.262825
vt 0.09375 0.262825
vt 0.09375 0.262825
vt 0.1121234375 0.262825
vt 0.103925 0.3125
vt 0.24404375 0.356840625
vt 0.22470625 0.356840625
vt 0.234375 0.32190312499999996
vt 0.22470625 0.356840625
vt 0.24404375 0.356840625
vt 0.24404375 0.419340625
vt 0.22470625 0.419340625
vt 0.22470625 0.419340625
vt 0.24404375 0.419340625
vt 0.234375 0.46875
vn 0.7525325381081018 -0.4656687551729117 0.46566875517291184
vn 0.850358550187806 0 0.5262037021178134
vn 0.8024170435203098 0.3310249296994112 0.49653739454911694
vn 0.7525325381081018 -0.4656687551729117 -0.46566875517291173
vn 0.850358550187806 0 -0.5262037021178134
vn 0.8024170435203097 0.3310249296994111 -0.4965373945491168
vn -8.799468437709944e-17 -0.44721359549995787 -0.894427190999916
vn -9.838104796291654e-17 0 -1
vn -9.333245704712545e-17 0.31622776601683794 -0.9486832980505139
vn -0.7525325381081018 -0.46566875517291173 -0.46566875517291173
vn -0.8503585501878062 0 -0.5262037021178134
vn -0.8024170435203097 0.3310249296994111 -0.4965373945491167
vn -0.752532538108102 -0.4656687551729117 0.4656687551729115
vn -0.8503585501878063 0 0.5262037021178131
vn -0.8024170435203101 0.33102492969941116 0.4965373945491166
vn -2.3295237621570736e-16 -0.44721359549995787 0.894427190999916
vn -2.6044867436921337e-16 0 1
vn -2.470833073734697e-16 0.3162277660168379 0.9486832980505139
usemtl m_f4b916e8-c18c-b7ce-4c8d-c759ccc6c769
f 5/1/1 3/2/1 1/3/1
f 3/4/2 5/5/2 6/6/2 4/7/2
f 4/8/3 6/9/3 2/10/3
f 7/11/4 5/12/4 1/13/4
f 5/14/5 7/15/5 8/16/5 6/17/5
f 6/18/6 8/19/6 2/20/6
f 9/21/7 7/22/7 1/23/7
f 7/24/8 9/25/8 10/26/8 8/27/8
f 8/28/9 10/29/9 2/30/9
f 11/31/10 9/32/10 1/33/10
f 9/34/11 11/35/11 12/36/11 10/37/11
f 10/38/12 12/39/12 2/40/12
f 13/41/13 11/42/13 1/43/13
f 11/44/14 13/45/14 14/46/14 12/47/14
f 12/48/15 14/49/15 2/50/15
f 3/51/16 13/52/16 1/53/16
f 13/54/17 3/55/17 4/56/17 14/57/17
f 14/58/18 4/59/18 2/60/18
o top
v 0.9375 0.4375 0.9375
v 0.9375 0.4375 0.0625
v 0.9375 0.375 0.9375
v 0.9375 0.375 0.0625
v 0.0625 0.4375 0.0625
v 0.0625 0.4375 0.9375
v 0.0625 0.375 0.0625
v 0.0625 0.375 0.9375
vt 0.671875 0.640625
vt 0.890625 0.640625
vt 0.890625 0.625
vt 0.671875 0.625
vt 0.671875 0.609375
vt 0.890625 0.609375
vt 0.890625 0.59375
vt 0.671875 0.59375
vt 0.671875 0.578125
vt 0.890625 0.578125
vt 0.890625 0.5625
vt 0.671875 0.5625
vt 0.671875 0.546875
vt 0.890625 0.546875
vt 0.890625 0.53125
vt 0.671875 0.53125
vt 0.484375 0.78125
vt 0.265625 0.78125
vt 0.265625 1
vt 0.484375 1
vt 0.484375 0.765625
vt 0.265625 0.765625
vt 0.265625 0.546875
vt 0.484375 0.546875
vn 0 0 -1
vn 1 0 0
vn 0 0 1
vn -1 0 0
vn 0 1 0
vn 0 -1 0
usemtl m_f4b916e8-c18c-b7ce-4c8d-c759ccc6c769
f 18/64/19 21/63/19 19/62/19 16/61/19
f 17/68/20 18/67/20 16/66/20 15/65/20
f 22/72/21 17/71/21 15/70/21 20/69/21
f 21/76/22 22/75/22 20/74/22 19/73/22
f 20/80/23 15/79/23 16/78/23 19/77/23
f 21/84/24 18/83/24 17/82/24 22/81/24
o bottom_1
v 1 0.0625 1
v 1 0.0625 0
v 1 0 1
v 1 0 0
v 0 0.0625 0
v 0 0.0625 1
v 0 0 0
v 0 0 1
vt 0.671875 0.765625
vt 0.921875 0.765625
vt 0.921875 0.75
vt 0.671875 0.75
vt 0.671875 0.734375
vt 0.921875 0.734375
vt 0.921875 0.71875
vt 0.671875 0.71875
vt 0.671875 0.703125
vt 0.921875 0.703125
vt 0.921875 0.6875
vt 0.671875 0.6875
vt 0.671875 0.671875
vt 0.921875 0.671875
vt 0.921875 0.65625
vt 0.671875 0.65625
vt 0.25 0.75
vt 0 0.75
vt 0 1
vt 0.25 1
vt 0.25 0.734375
vt 0 0.734375
vt 0 0.484375
vt 0.25 0.484375
vn 0 0 -1
vn 1 0 0
vn 0 0 1
vn -1 0 0
vn 0 1 0
vn 0 -1 0
usemtl m_f4b916e8-c18c-b7ce-4c8d-c759ccc6c769
f 26/88/25 29/87/25 27/86/25 24/85/25
f 25/92/26 26/91/26 24/90/26 23/89/26
f 30/96/27 25/95/27 23/94/27 28/93/27
f 29/100/28 30/99/28 28/98/28 27/97/28
f 28/104/29 23/103/29 24/102/29 27/101/29
f 29/108/30 26/107/30 25/106/30 30/105/30
o bottom_2
v 0.9375 0.125 0.9375
v 0.9375 0.125 0.0625
v 0.9375 0.0625 0.9375
v 0.9375 0.0625 0.0625
v 0.0625 0.125 0.0625
v 0.0625 0.125 0.9375
v 0.0625 0.0625 0.0625
v 0.0625 0.0625 0.9375
vt 0.671875 0.515625
vt 0.890625 0.515625
vt 0.890625 0.5
vt 0.671875 0.5
vt 0.671875 0.484375
vt 0.890625 0.484375
vt 0.890625 0.46875
vt 0.671875 0.46875
vt 0.671875 0.453125
vt 0.890625 0.453125
vt 0.890625 0.4375
vt 0.671875 0.4375
vt 0.671875 0.421875
vt 0.890625 0.421875
vt 0.890625 0.40625
vt 0.671875 0.40625
vt 0.484375 0.3125
vt 0.265625 0.3125
vt 0.265625 0.53125
vt 0.484375 0.53125
vt 0.71875 1
vt 0.5 1
vt 0.5 0.78125
vt 0.71875 0.78125
vn 0 0 -1
vn 1 0 0
vn 0 0 1
vn -1 0 0
vn 0 1 0
vn 0 -1 0
usemtl m_f4b916e8-c18c-b7ce-4c8d-c759ccc6c769
f 34/112/31 37/111/31 35/110/31 32/109/31
f 33/116/32 34/115/32 32/114/32 31/113/32
f 38/120/33 33/119/33 31/118/33 36/117/33
f 37/124/34 38/123/34 36/122/34 35/121/34
f 36/128/35 31/127/35 32/126/35 35/125/35
f 37/132/36 34/131/36 33/130/36 38/129/36
o z
v 0.8125 0.375 0.8125
v 0.8125 0.375 0.1875
v 0.8125 0.125 0.8125
v 0.8125 0.125 0.1875
v 0.1875 0.375 0.1875
v 0.1875 0.375 0.8125
v 0.1875 0.125 0.1875
v 0.1875 0.125 0.8125
vt 0 0.46875
vt 0.15625 0.46875
vt 0.15625 0.40625
vt 0 0.40625
vt 0.5 0.421875
vt 0.65625 0.421875
vt 0.65625 0.359375
vt 0.5 0.359375
vt 0 0.390625
vt 0.15625 0.390625
vt 0.15625 0.328125
vt 0 0.328125
vt 0.5 0.34375
vt 0.65625 0.34375
vt 0.65625 0.28125
vt 0.5 0.28125
vt 0.65625 0.609375
vt 0.5 0.609375
vt 0.5 0.765625
vt 0.65625 0.765625
vt 0.65625 0.59375
vt 0.5 0.59375
vt 0.5 0.4375
vt 0.65625 0.4375
vn 0 0 -1
vn 1 0 0
vn 0 0 1
vn -1 0 0
vn 0 1 0
vn 0 -1 0
usemtl m_f4b916e8-c18c-b7ce-4c8d-c759ccc6c769
f 42/136/37 45/135/37 43/134/37 40/133/37
f 41/140/38 42/139/38 40/138/38 39/137/38
f 46/144/39 41/143/39 39/142/39 44/141/39
f 45/148/40 46/147/40 44/146/40 43/145/40
f 44/152/41 39/151/41 40/150/41 43/149/41
f 45/156/42 42/155/42 41/154/42 46/153/42
o input_1
v 0.9375 0.46875 0.5625
v 0.9375 0.46875 0.4375
v 0.9375 0.4375 0.5625
v 0.9375 0.4375 0.4375
v 0.8125 0.46875 0.4375
v 0.8125 0.46875 0.5625
v 0.8125 0.4375 0.4375
v 0.8125 0.4375 0.5625
vt 0.765625 0.8125
vt 0.796875 0.8125
vt 0.796875 0.796875
vt 0.765625 0.796875
vt 0.796875 1
vt 0.828125 1
vt 0.828125 0.984375
vt 0.796875 0.984375
vt 0.796875 0.96875
vt 0.828125 0.96875
vt 0.828125 0.953125
vt 0.796875 0.953125
vt 0.796875 0.9375
vt 0.828125 0.9375
vt 0.828125 0.921875
vt 0.796875 0.921875
vt 0.171875 0.265625
vt 0.140625 0.265625
vt 0.140625 0.296875
vt 0.171875 0.296875
vt 0.21875 0.296875
vt 0.1875 0.296875
vt 0.1875 0.265625
vt 0.21875 0.265625
vn 0 0 -1
vn 1 0 0
vn 0 0 1
vn -1 0 0
vn 0 1 0
vn 0 -1 0
usemtl m_f4b916e8-c18c-b7ce-4c8d-c759ccc6c769
f 50/160/43 53/159/43 51/158/43 48/157/43
f 49/164/44 50/163/44 48/162/44 47/161/44
f 54/168/45 49/167/45 47/166/45 52/165/45
f 53/172/46 54/171/46 52/170/46 51/169/46
f 52/176/47 47/175/47 48/174/47 51/173/47
f 53/180/48 50/179/48 49/178/48 54/177/48
o input_2
v 0.5625 0.46875 0.1875
v 0.5625 0.46875 0.0625
v 0.5625 0.4375 0.1875
v 0.5625 0.4375 0.0625
v 0.4375 0.46875 0.0625
v 0.4375 0.46875 0.1875
v 0.4375 0.4375 0.0625
v 0.4375 0.4375 0.1875
vt 0.796875 0.90625
vt 0.828125 0.90625
vt 0.828125 0.890625
vt 0.796875 0.890625
vt 0.796875 0.875
vt 0.828125 0.875
vt 0.828125 0.859375
vt 0.796875 0.859375
vt 0.796875 0.84375
vt 0.828125 0.84375
vt 0.828125 0.828125
vt 0.796875 0.828125
vt 0.75 0.203125
vt 0.78125 0.203125
vt 0.78125 0.1875
vt 0.75 0.1875
vt 0.265625 0.265625
vt 0.234375 0.265625
vt 0.234375 0.296875
vt 0.265625 0.296875
vt 0.3125 0.296875
vt 0.28125 0.296875
vt 0.28125 0.265625
vt 0.3125 0.265625
vn 0 0 -1
vn 1 0 0
vn 0 0 1
vn -1 0 0
vn 0 1 0
vn 0 -1 0
usemtl m_f4b916e8-c18c-b7ce-4c8d-c759ccc6c769
f 58/184/49 61/183/49 59/182/49 56/181/49
f 57/188/50 58/187/50 56/186/50 55/185/50
f 62/192/51 57/191/51 55/190/51 60/189/51
f 61/196/52 62/195/52 60/194/52 59/193/52
f 60/200/53 55/199/53 56/198/53 59/197/53
f 61/204/54 58/203/54 57/202/54 62/201/54
o input_3
v 0.1875 0.46875 0.5625
v 0.1875 0.46875 0.4375
v 0.1875 0.4375 0.5625
v 0.1875 0.4375 0.4375
v 0.0625 0.46875 0.4375
v 0.0625 0.46875 0.5625
v 0.0625 0.4375 0.4375
v 0.0625 0.4375 0.5625
vt 0.796875 0.203125
vt 0.828125 0.203125
vt 0.828125 0.1875
vt 0.796875 0.1875
vt 0.8125 0.8125
vt 0.84375 0.8125
vt 0.84375 0.796875
vt 0.8125 0.796875
vt 0.296875 0.1875
vt 0.328125 0.1875
vt 0.328125 0.171875
vt 0.296875 0.171875
vt 0.34375 0.1875
vt 0.375 0.1875
vt 0.375 0.171875
vt 0.34375 0.171875
vt 0.359375 0.265625
vt 0.328125 0.265625
vt 0.328125 0.296875
vt 0.359375 0.296875
vt 0.40625 0.296875
vt 0.375 0.296875
vt 0.375 0.265625
vt 0.40625 0.265625
vn 0 0 -1
vn 1 0 0
vn 0 0 1
vn -1 0 0
vn 0 1 0
vn 0 -1 0
usemtl m_f4b916e8-c18c-b7ce-4c8d-c759ccc6c769
f 66/208/55 69/207/55 67/206/55 64/205/55
f 65/212/56 66/211/56 64/210/56 63/209/56
f 70/216/57 65/215/57 63/214/57 68/213/57
f 69/220/58 70/219/58 68/218/58 67/217/58
f 68/224/59 63/223/59 64/222/59 67/221/59
f 69/228/60 66/227/60 65/226/60 70/225/60
o input_4
v 0.5625 0.46875 0.9375
v 0.5625 0.46875 0.8125
v 0.5625 0.4375 0.9375
v 0.5625 0.4375 0.8125
v 0.4375 0.46875 0.8125
v 0.4375 0.46875 0.9375
v 0.4375 0.4375 0.8125
v 0.4375 0.4375 0.9375
vt 0.390625 0.1875
vt 0.421875 0.1875
vt 0.421875 0.171875
vt 0.390625 0.171875
vt 0.484375 0.1875
vt 0.515625 0.1875
vt 0.515625 0.171875
vt 0.484375 0.171875
vt 0.53125 0.1875
vt 0.5625 0.1875
vt 0.5625 0.171875
vt 0.53125 0.171875
vt 0.578125 0.1875
vt 0.609375 0.1875
vt 0.609375 0.171875
vt 0.578125 0.171875
vt 0.453125 0.265625
vt 0.421875 0.265625
vt 0.421875 0.296875
vt 0.453125 0.296875
vt 0.75 0.390625
vt 0.71875 0.390625
vt 0.71875 0.359375
vt 0.75 0.359375
vn 0 0 -1
vn 1 0 0
vn 0 0 1
vn -1 0 0
vn 0 1 0
vn 0 -1 0
usemtl m_f4b916e8-c18c-b7ce-4c8d-c759ccc6c769
f 74/232/61 77/231/61 75/230/61 72/229/61
f 73/236/62 74/235/62 72/234/62 71/233/62
f 78/240/63 73/239/63 71/238/63 76/237/63
f 77/244/64 78/243/64 76/242/64 75/241/64
f 76/248/65 71/247/65 72/246/65 75/245/65
f 77/252/66 74/251/66 73/250/66 78/249/66
o column_3_1
v 0.46875 0.6190205698726592 0.24762223986468113
v 0.46875 0.5901612815454695 0.30306041693832
v 0.46875 0.4527060386517425 0.1610443748831123
v 0.46875 0.423846750324553 0.21648255195675115
v 0.53125 0.5901612815454695 0.30306041693832
v 0.53125 0.6190205698726592 0.24762223986468113
v 0.53125 0.423846750324553 0.21648255195675115
v 0.53125 0.4527060386517425 0.1610443748831123
vt 0.296875 0.25
vt 0.3125 0.25
vt 0.3125 0.203125
vt 0.296875 0.203125
vt 0.328125 0.25
vt 0.34375 0.25
vt 0.34375 0.203125
vt 0.328125 0.203125
vt 0.359375 0.25
vt 0.375 0.25
vt 0.375 0.203125
vt 0.359375 0.203125
vt 0.390625 0.25
vt 0.40625 0.25
vt 0.40625 0.203125
vt 0.390625 0.203125
vt 0.828125 0.375
vt 0.8125 0.375
vt 0.8125 0.390625
vt 0.828125 0.390625
vt 0.640625 0.1875
vt 0.625 0.1875
vt 0.625 0.171875
vt 0.640625 0.171875
vn 1.0862749776607361e-16 -0.4617486132350339 0.8870108331782217
vn -1 6.162975822039155e-33 1.2246467991473532e-16
vn -1.0862749776607361e-16 0.4617486132350339 -0.8870108331782217
vn 1 -6.162975822039155e-33 -1.2246467991473532e-16
vn 5.654789612090135e-17 0.8870108331782217 0.4617486132350339
vn -5.654789612090135e-17 -0.8870108331782217 -0.4617486132350339
usemtl m_f4b916e8-c18c-b7ce-4c8d-c759ccc6c769
f 82/256/67 85/255/67 83/254/67 80/253/67
f 81/260/68 82/259/68 80/258/68 79/257/68
f 86/264/69 81/263/69 79/262/69 84/261/69
f 85/268/70 86/267/70 84/266/70 83/265/70
f 84/272/71 79/271/71 80/270/71 83/269/71
f 85/276/72 82/275/72 81/274/72 86/273/72
o column_3_2
v 0.475 0.7560970843724248 0.4563050900821104
v 0.475 0.7100197818811691 0.4885687646268566
v 0.47499999999999987 0.6091181225574691 0.24639737873305634
v 0.47499999999999987 0.5630408200662136 0.27866105327780266
v 0.5250000000000001 0.7100197818811691 0.4885687646268566
v 0.5250000000000001 0.7560970843724248 0.4563050900821104
v 0.5250000000000001 0.5630408200662136 0.27866105327780266
v 0.5250000000000001 0.6091181225574691 0.24639737873305634
vt 0.46875 0.296875
vt 0.484375 0.296875
vt 0.484375 0.234375
vt 0.46875 0.234375
vt 0.71875 0.34375
vt 0.734375 0.34375
vt 0.734375 0.28125
vt 0.71875 0.28125
vt 0.734375 1
vt 0.75 1
vt 0.75 0.9375
vt 0.734375 0.9375
vt 0.734375 0.921875
vt 0.75 0.921875
vt 0.75 0.859375
vt 0.734375 0.859375
vt 0.828125 0.34375
vt 0.8125 0.34375
vt 0.8125 0.359375
vt 0.828125 0.359375
vt 0.671875 0.1875
vt 0.65625 0.1875
vt 0.65625 0.171875
vt 0.671875 0.171875
vn 7.024285468436544e-17 -0.8191520442889917 0.5735764363510463
vn -1 0 1.2246467991473532e-16
vn -7.024285468436544e-17 0.8191520442889917 -0.5735764363510463
vn 1 0 -1.2246467991473532e-16
vn 1.0031719290535246e-16 0.5735764363510463 0.8191520442889917
vn -1.0031719290535246e-16 -0.5735764363510463 -0.8191520442889917
usemtl m_f4b916e8-c18c-b7ce-4c8d-c759ccc6c769
f 90/280/73 93/279/73 91/278/73 88/277/73
f 89/284/74 90/283/74 88/282/74 87/281/74
f 94/288/75 89/287/75 87/286/75 92/285/75
f 93/292/76 94/291/76 92/290/76 91/289/76
f 92/296/77 87/295/77 88/294/77 91/293/77
f 93/300/78 90/299/78 89/298/78 94/297/78
o column_2_1
v 0.7622673529363198 0.6190205698726592 0.4692645928010014
v 0.706829175862681 0.5901612815454695 0.4692645928010013
v 0.8488452179178887 0.4527060386517425 0.4692645928010014
v 0.79340704084425 0.4238467503245529 0.4692645928010013
v 0.706829175862681 0.5901612815454695 0.5317645928010013
v 0.7622673529363198 0.6190205698726592 0.5317645928010013
v 0.79340704084425 0.4238467503245529 0.5317645928010013
v 0.8488452179178887 0.4527060386517425 0.5317645928010013
vt 0.421875 0.25
vt 0.4375 0.25
vt 0.4375 0.203125
vt 0.421875 0.203125
vt 0.65625 0.25
vt 0.671875 0.25
vt 0.671875 0.203125
vt 0.65625 0.203125
vt 0.75 0.34375
vt 0.765625 0.34375
vt 0.765625 0.296875
vt 0.75 0.296875
vt 0.75 0.28125
vt 0.765625 0.28125
vt 0.765625 0.234375
vt 0.75 0.234375
vt 0.828125 0.3125
vt 0.8125 0.3125
vt 0.8125 0.328125
vt 0.828125 0.328125
vt 0.828125 0.296875
vt 0.8125 0.296875
vt 0.8125 0.28125
vt 0.828125 0.28125
vn -0.8870108331782217 -0.4617486132350339 -1.969559700172811e-16
vn 1.241101821087541e-16 2.0254016959068143e-18 -1
vn 0.8870108331782217 0.4617486132350339 1.969559700172811e-16
vn -1.241101821087541e-16 -2.0254016959068143e-18 1
vn -0.4617486132350339 0.8870108331782218 -1.0252878840045419e-16
vn 0.4617486132350339 -0.8870108331782218 1.0252878840045419e-16
usemtl m_f4b916e8-c18c-b7ce-4c8d-c759ccc6c769
f 98/304/79 101/303/79 99/302/79 96/301/79
f 97/308/80 98/307/80 96/306/80 95/305/80
f 102/312/81 97/311/81 95/310/81 100/309/81
f 101/316/82 102/315/82 100/314/82 99/313/82
f 100/320/83 95/319/83 96/318/83 99/317/83
f 101/324/84 98/323/84 97/322/84 102/321/84
o column_2_2
v 0.5587042029956968 0.7525122316452311 0.47551459280100117
v 0.5264405284509506 0.7064349291539753 0.47551459280100117
v 0.768611914344751 0.6055332698302753 0.47551459280100117
v 0.7363482398000047 0.5594559673390198 0.47551459280100117
v 0.5264405284509506 0.7064349291539753 0.5255145928010012
v 0.5587042029956968 0.7525122316452311 0.5255145928010012
v 0.7363482398000047 0.5594559673390198 0.5255145928010012
v 0.768611914344751 0.6055332698302753 0.5255145928010012
vt 0.734375 0.84375
vt 0.75 0.84375
vt 0.75 0.78125
vt 0.734375 0.78125
vt 0.5 0.265625
vt 0.515625 0.265625
vt 0.515625 0.203125
vt 0.5 0.203125
vt 0.53125 0.265625
vt 0.546875 0.265625
vt 0.546875 0.203125
vt 0.53125 0.203125
vt 0.5625 0.265625
vt 0.578125 0.265625
vt 0.578125 0.203125
vt 0.5625 0.203125
vt 0.734375 0.171875
vt 0.71875 0.171875
vt 0.71875 0.1875
vt 0.734375 0.1875
vt 0.828125 0.265625
vt 0.8125 0.265625
vt 0.8125 0.25
vt 0.828125 0.25
vn -0.5735764363510463 -0.8191520442889918 -8.188748019195522e-17
vn 1.0915184961385794e-16 5.910425772287161e-17 -1
vn 0.5735764363510463 0.8191520442889918 8.188748019195522e-17
vn -1.0915184961385794e-16 -5.910425772287161e-17 1
vn -0.8191520442889918 0.5735764363510462 -2.137281803486498e-16
vn 0.8191520442889918 -0.5735764363510462 2.137281803486498e-16
usemtl m_f4b916e8-c18c-b7ce-4c8d-c759ccc6c769
f 106/328/85 109/327/85 107/326/85 104/325/85
f 105/332/86 106/331/86 104/330/86 103/329/86
f 110/336/87 105/335/87 103/334/87 108/333/87
f 109/340/88 110/339/88 108/338/88 107/337/88
f 108/344/89 103/343/89 104/342/89 107/341/89
f 109/348/90 106/347/90 105/346/90 110/345/90
o column_1_1
v 0.53125 0.6190205698726592 0.7627819457373208
v 0.53125 0.5901612815454695 0.7073437686636819
v 0.53125 0.4527060386517425 0.8493598107188896
v 0.53125 0.4238467503245529 0.7939216336452508
v 0.46875 0.5901612815454695 0.7073437686636819
v 0.46875 0.6190205698726592 0.7627819457373208
v 0.46875 0.4238467503245529 0.7939216336452508
v 0.46875 0.4527060386517425 0.8493598107188896
vt 0.765625 1
vt 0.78125 1
vt 0.78125 0.953125
vt 0.765625 0.953125
vt 0.765625 0.9375
vt 0.78125 0.9375
vt 0.78125 0.890625
vt 0.765625 0.890625
vt 0.765625 0.875
vt 0.78125 0.875
vt 0.78125 0.828125
vt 0.765625 0.828125
vt 0.453125 0.21875
vt 0.46875 0.21875
vt 0.46875 0.171875
vt 0.453125 0.171875
vt 0.828125 0.21875
vt 0.8125 0.21875
vt 0.8125 0.234375
vt 0.828125 0.234375
vt 0.140625 0.171875
vt 0.125 0.171875
vt 0.125 0.15625
vt 0.140625 0.15625
vn 0 -0.4617486132350339 -0.8870108331782217
vn 1 0 0
vn 0 0.4617486132350339 0.8870108331782217
vn -1 0 0
vn 0 0.8870108331782217 -0.4617486132350339
vn 0 -0.8870108331782217 0.4617486132350339
usemtl m_f4b916e8-c18c-b7ce-4c8d-c759ccc6c769
f 114/352/91 117/351/91 115/350/91 112/349/91
f 113/356/92 114/355/92 112/354/92 111/353/92
f 118/360/93 113/359/93 111/358/93 116/357/93
f 117/364/94 118/363/94 116/362/94 115/361/94
f 116/368/95 111/367/95 112/366/95 115/365/95
f 117/372/96 114/371/96 113/370/96 118/369/96
o column_1_2
v 0.5249999999999999 0.7560970843724251 0.5540990955198917
v 0.5249999999999999 0.7100197818811693 0.5218354209751452
v 0.5249999999999999 0.6091181225574696 0.7640068068689456
v 0.5249999999999999 0.5630408200662136 0.7317431323241994
v 0.475 0.7100197818811693 0.5218354209751452
v 0.475 0.7560970843724251 0.5540990955198917
v 0.475 0.5630408200662136 0.7317431323241994
v 0.475 0.6091181225574696 0.7640068068689456
vt 0.59375 0.265625
vt 0.609375 0.265625
vt 0.609375 0.203125
vt 0.59375 0.203125
vt 0.625 0.265625
vt 0.640625 0.265625
vt 0.640625 0.203125
vt 0.625 0.203125
vt 0.71875 0.265625
vt 0.734375 0.265625
vt 0.734375 0.203125
vt 0.71875 0.203125
vt 0.140625 0.25
vt 0.15625 0.25
vt 0.15625 0.1875
vt 0.140625 0.1875
vt 0.171875 0.15625
vt 0.15625 0.15625
vt 0.15625 0.171875
vt 0.171875 0.171875
vt 0.203125 0.171875
vt 0.1875 0.171875
vt 0.1875 0.15625
vt 0.203125 0.15625
vn 0 -0.8191520442889917 -0.5735764363510463
vn 1 0 0
vn 0 0.8191520442889917 0.5735764363510463
vn -1 0 0
vn 0 0.5735764363510463 -0.8191520442889917
vn 0 -0.5735764363510463 0.8191520442889917
usemtl m_f4b916e8-c18c-b7ce-4c8d-c759ccc6c769
f 122/376/97 125/375/97 123/374/97 120/373/97
f 121/380/98 122/379/98 120/378/98 119/377/98
f 126/384/99 121/383/99 119/382/99 124/381/99
f 125/388/100 126/387/100 124/386/100 123/385/100
f 124/392/101 119/391/101 120/390/101 123/389/101
f 125/396/102 122/395/102 121/394/102 126/393/102
o column_4_1
v 0.2408576470636805 0.6252705698726593 0.5317645928010011
v 0.29629582413731936 0.5964112815454696 0.5317645928010011
v 0.15427978208211157 0.4589560386517426 0.5317645928010011
v 0.20971795915575042 0.43009675032455297 0.5317645928010011
v 0.29629582413731936 0.5964112815454696 0.4692645928010011
v 0.2408576470636805 0.6252705698726593 0.4692645928010011
v 0.20971795915575042 0.43009675032455297 0.4692645928010011
v 0.15427978208211157 0.4589560386517426 0.4692645928010011
vt 0.78125 0.390625
vt 0.796875 0.390625
vt 0.796875 0.34375
vt 0.78125 0.34375
vt 0.78125 0.328125
vt 0.796875 0.328125
vt 0.796875 0.28125
vt 0.78125 0.28125
vt 0.6875 0.21875
vt 0.703125 0.21875
vt 0.703125 0.171875
vt 0.6875 0.171875
vt 0.78125 0.265625
vt 0.796875 0.265625
vt 0.796875 0.21875
vt 0.78125 0.21875
vt 0.234375 0.15625
vt 0.21875 0.15625
vt 0.21875 0.171875
vt 0.234375 0.171875
vt 0.265625 0.171875
vt 0.25 0.171875
vt 0.25 0.15625
vt 0.265625 0.15625
vn 0.8870108331782217 -0.4617486132350339 8.832847225120748e-17
vn -1.6455021940187623e-18 2.0254016959068162e-18 1
vn -0.8870108331782217 0.4617486132350339 -8.832847225120748e-17
vn 1.6455021940187623e-18 -2.0254016959068162e-18 -1
vn 0.4617486132350339 0.8870108331782218 4.598089227955284e-17
vn -0.4617486132350339 -0.8870108331782218 -4.598089227955284e-17
usemtl m_f4b916e8-c18c-b7ce-4c8d-c759ccc6c769
f 130/400/103 133/399/103 131/398/103 128/397/103
f 129/404/104 130/403/104 128/402/104 127/401/104
f 134/408/105 129/407/105 127/406/105 132/405/105
f 133/412/106 134/411/106 132/410/106 131/409/106
f 132/416/107 127/415/107 128/414/107 131/413/107
f 133/420/108 130/419/108 129/418/108 134/417/108
o column_4_2
v 0.44442079700430337 0.7587622316452312 0.5255145928010012
v 0.4766844715490498 0.7126849291539754 0.5255145928010012
v 0.2345130856552492 0.6117832698302754 0.5255145928010014
v 0.26677676019999563 0.5657059673390197 0.5255145928010014
v 0.4766844715490498 0.7126849291539754 0.47551459280100117
v 0.44442079700430337 0.7587622316452312 0.47551459280100117
v 0.26677676019999563 0.5657059673390197 0.47551459280100117
v 0.2345130856552492 0.6117832698302754 0.47551459280100117
vt 0.171875 0.25
vt 0.1875 0.25
vt 0.1875 0.1875
vt 0.171875 0.1875
vt 0.203125 0.25
vt 0.21875 0.25
vt 0.21875 0.1875
vt 0.203125 0.1875
vt 0.234375 0.25
vt 0.25 0.25
vt 0.25 0.1875
vt 0.234375 0.1875
vt 0.265625 0.25
vt 0.28125 0.25
vt 0.28125 0.1875
vt 0.265625 0.1875
vt 0.765625 0.15625
vt 0.75 0.15625
vt 0.75 0.171875
vt 0.765625 0.171875
vt 0.796875 0.171875
vt 0.78125 0.171875
vt 0.78125 0.15625
vt 0.796875 0.15625
vn 0.5735764363510463 -0.8191520442889918 1.1644625507589787e-17
vn 1.3312830300877376e-17 5.910425772287161e-17 1
vn -0.5735764363510463 0.8191520442889918 -1.1644625507589787e-17
vn -1.3312830300877376e-17 -5.910425772287161e-17 -1
vn 0.8191520442889918 0.5735764363510462 1.1341098744329734e-16
vn -0.8191520442889918 -0.5735764363510462 -1.1341098744329734e-16
usemtl m_f4b916e8-c18c-b7ce-4c8d-c759ccc6c769
f 138/424/109 141/423/109 139/422/109 136/421/109
f 137/428/110 138/427/110 136/426/110 135/425/110
f 142/432/111 137/431/111 135/430/111 140/429/111
f 141/436/112 142/435/112 140/434/112 139/433/112
f 140/440/113 135/439/113 136/438/113 139/437/113
f 141/444/114 138/443/114 137/442/114 142/441/114