# Made in Blockbench 4.10.1
mtllib ishizakura_fragment.mtl

o left_crystal
v 0.5984338343512092 0.038361241400262584 0.44250001154840757
v 0.8742788568707858 0.3572311978677182 0.2765068188005805
v 0.7045090135904897 0.13604274473881314 0.5149576399005039
v 0.7045090135904897 0.13604274473881314 0.5149576399005039
v 0.7626009669640657 0.06691935792610457 0.4787091946618363
v 0.7626009669640657 0.06691935792610457 0.4787091946618363
v 0.7626009669640657 0.02508067773665336 0.39833783780183796
v 0.7626009669640657 0.02508067773665336 0.39833783780183796
v 0.7045090135904896 0.03503523559364949 0.32092402014276794
v 0.7045090135904896 0.03503523559364949 0.32092402014276794
v 0.6223545852648329 0.09095178651189231 0.2918157061542318
v 0.6223545852648329 0.09095178651189231 0.2918157061542318
v 0.6403578105173469 0.24803929924665755 0.2822729258072918
v 0.6403578105173469 0.24803929924665755 0.2822729258072918
v 0.5642626318912568 0.20191385351405214 0.4084355082528978
v 0.5642626318912568 0.20191385351405217 0.40843550825289776
v 0.6223545852648328 0.19195929565705602 0.4858493259119677
v 0.6223545852648328 0.19195929565705602 0.4858493259119677
vt 0.7417099550731824 0.9909110134789092
vt 0.724553125 1
vt 0.7148439318072862 0.9609382314422521
vt 0.566521875 0.1832499999999999
vt 0.5859375 0.1832499999999999
vt 0.5859375 0.2769999999999999
vt 0.566521875 0.2769999999999999
vt 0.566521875 0.2769999999999999
vt 0.5859375 0.2769999999999999
vt 0.576228125 0.34375
vt 0.771141411299901 0.33244190435292353
vt 0.752296088700099 0.33712609773833035
vt 0.752296088700099 0.296875
vt 0.252009375 0.24575000000000002
vt 0.271428125 0.24575000000000002
vt 0.271428125 0.3395
vt 0.252009375 0.3395
vt 0.252009375 0.3395
vt 0.271428125 0.3395
vt 0.26171875 0.40625
vt 0.08013437500000001 0.3125
vt 0.06297822979828466 0.3034097207986617
vt 0.08984374999999999 0.2734375
vt 0.625 0.18325000000000002
vt 0.644415625 0.277
vt 0.644415625 0.18325000000000002
vt 0.625 0.277
vt 0.625 0.277
vt 0.644415625 0.277
vt 0.63470625 0.34375
vt 0.09955312499999999 0.3125
vt 0.08013437500000001 0.3125
vt 0.08984375 0.2734375
vt 0.627009375 0.8395
vt 0.646428125 0.8395
vt 0.646428125 0.93325
vt 0.627009375 0.93325
vt 0.627009375 0.93325
vt 0.646428125 0.93325
vt 0.63671875 1
vt 0.11670927020171534 0.3034097207986617
vt 0.09955312499999999 0.3125
vt 0.08984375000000001 0.2734375
vt 0.004021874999999994 0.15200000000000002
vt 0.0234375 0.15200000000000002
vt 0.0234375 0.24575000000000002
vt 0.004021874999999994 0.24575000000000002
vt 0.004021874999999994 0.24575000000000002
vt 0.0234375 0.24575000000000002
vt 0.01373125 0.3125
vt 0.771141411299901 0.23869190435292353
vt 0.752296088700099 0.24337609773833035
vt 0.752296088700099 0.203125
vt 0.314509375 0.24575000000000002
vt 0.333928125 0.24575000000000002
vt 0.333928125 0.3395
vt 0.314509375 0.3395
vt 0.705134375 1
vt 0.6879775449268176 0.9909110134789092
vt 0.7148435681927138 0.9609382314422521
vt 0.625 0.4019999999999999
vt 0.644415625 0.4019999999999999
vt 0.644415625 0.4957499999999999
vt 0.625 0.4957499999999999
vt 0.625 0.4957499999999999
vt 0.644415625 0.4957499999999999
vt 0.634709375 0.5625
vt 0.724553125 1
vt 0.705134375 1
vt 0.71484375 0.9609375
vt 0.627009375 0.62075
vt 0.646428125 0.62075
vt 0.646428125 0.7145
vt 0.627009375 0.7145
vt 0.627009375 0.7145
vt 0.646428125 0.7145
vt 0.63671875 0.78125
vt 0.314509375 0.3395
vt 0.333928125 0.3395
vt 0.32421875 0.40625
vn -0.09549921887385661 -0.5240639786381959 0.846307772319496
vn 0 0 0
vn 0.6891471013363549 0.21653557670068924 0.691511834130552
vn 0.052385601749762326 -0.8857929067270947 0.4611146008545818
vn 0 0 0
vn 0.9528980029811468 -0.26902235176611805 0.14004417219138224
vn -0.09549921887385658 -0.9938454910804249 -0.056134116663508316
vn 0 0 0
vn 0.6891471013363548 -0.4422536281508719 -0.5740104538308429
vn -0.435613976133767 -0.826107240386164 -0.3574734831823005
vn 0 0 0
vn 0.18331716186473804 -0.2284054126842574 -0.9561515495058257
vn -0.9871430920150843 0.10585759961831614 -0.11976094726557182
vn 0 0 0
vn 0.003908983907816871 -0.061082275406166286 -0.9981250800756456
vn -0.7733214112749638 -0.2800426733442528 -0.5688146411353197
vn -0.7933533402912352 0.5399779823517903 -0.2810947456357542
vn -0.8017599010780648 -0.043363641445400586 0.5960710155878128
vn 0 0 0
vn -0.30126418758052964 0.8906365886047334 0.3405970585897158
vn -0.43561397613376673 -0.18101051245660502 0.8817458013379635
vn 0 0 0
vn 0.1833171618647384 0.6522255337770577 0.7355247591040627
vn -0.42015409863273745 0.9041672649883086 0.07714979148172534
usemtl m_810e1978-31a2-eb6f-043a-f39e1e6dd5ea
f 5/1/1 3/2/1 1/3/1
f 3/4/2 5/5/2 6/6/2 4/7/2
f 4/8/3 6/9/3 2/10/3
f 7/11/4 5/12/4 1/13/4
f 5/14/5 7/15/5 8/16/5 6/17/5
f 6/18/6 8/19/6 2/20/6
f 9/21/7 7/22/7 1/23/7
f 7/24/8 10/25/8 9/26/8 8/27/8
f 8/28/9 10/29/9 2/30/9
f 11/31/10 9/32/10 1/33/10
f 9/34/11 11/35/11 12/36/11 10/37/11
f 10/38/12 12/39/12 2/40/12
f 13/41/13 11/42/13 1/43/13
f 11/44/14 13/45/14 14/46/14 12/47/14
f 12/48/15 14/49/15 2/50/15
f 15/51/16 13/52/16 1/53/16
f 13/54/17 15/55/17 16/56/17 14/57/17
f 17/58/18 15/59/18 1/60/18
f 15/61/19 17/62/19 18/63/19 16/64/19
f 16/65/20 18/66/20 2/67/20
f 3/68/21 17/69/21 1/70/21
f 17/71/22 3/72/22 4/73/22 18/74/22
f 18/75/23 4/76/23 2/77/23
f 14/78/24 16/79/24 2/80/24
o front
v 0.45369867887970877 0.05698908196587808 0.403404666824034
v 0.17108062578130945 0.43252348590794576 0.07215559509892511
v 0.3459144731949466 0.3084951088900693 0.3058477618114251
v 0.3459144731949466 0.3084951088900693 0.3058477618114251
v 0.3955185416058144 0.29713685763755576 0.2506493600204316
v 0.3955185416058144 0.29713685763755576 0.2506493600204316
v 0.4004757047640079 0.2497147586556968 0.19265791154496162
v 0.4004757047640079 0.2497147586556968 0.19265791154496162
v 0.3578821237223536 0.1940080343718663 0.16584402040028529
v 0.3578821237223536 0.1940080343718663 0.16584402040028529
v 0.29268854058501503 0.1626489283561534 0.1859149003589579
v 0.29268854058501503 0.1626489283561534 0.1859149003589579
v 0.24308447217414728 0.174007179608667 0.24111330214995144
v 0.24308447217414753 0.1740071796086671 0.24111330214995136
v 0.23812730901595378 0.22142927859052597 0.29910475062542136
v 0.23812730901595378 0.22142927859052597 0.29910475062542136
v 0.28072089005760803 0.2771360028743564 0.3259186417700977
v 0.28072089005760803 0.2771360028743564 0.3259186417700977
vt 0.4609375 0.84003125
vt 0.44281875 0.84003125
vt 0.451878125 0.801884375
vt 0.44281875 0.84003125
vt 0.4609375 0.84003125
vt 0.4609375 0.93378125
vt 0.44281875 0.93378125
vt 0.44281875 0.93378125
vt 0.4609375 0.93378125
vt 0.451878125 1
vt 0.208278125 0.49628125
vt 0.190159375 0.49628125
vt 0.19921875 0.458134375
vt 0.190159375 0.49628125
vt 0.208278125 0.49628125
vt 0.208278125 0.59003125
vt 0.190159375 0.59003125
vt 0.190159375 0.59003125
vt 0.208278125 0.59003125
vt 0.19921875 0.65625
vt 0.45561875 0.59003125
vt 0.4375 0.59003125
vt 0.446559375 0.551884375
vt 0.4375 0.59003125
vt 0.45561875 0.59003125
vt 0.45561875 0.68378125
vt 0.4375 0.68378125
vt 0.4375 0.68378125
vt 0.45561875 0.68378125
vt 0.446559375 0.75
vt 0.270778125 0.49628125
vt 0.252659375 0.49628125
vt 0.26171875 0.458134375
vt 0.252659375 0.49628125
vt 0.270778125 0.49628125
vt 0.270778125 0.59003125
vt 0.252659375 0.59003125
vt 0.252659375 0.59003125
vt 0.270778125 0.59003125
vt 0.26171875 0.65625
vt 0.5234375 0.84003125
vt 0.50531875 0.84003125
vt 0.514378125 0.801884375
vt 0.50531875 0.84003125
vt 0.5234375 0.84003125
vt 0.5234375 0.93378125
vt 0.50531875 0.93378125
vt 0.50531875 0.93378125
vt 0.5234375 0.93378125
vt 0.514378125 1
vt 0.395778125 0.84003125
vt 0.377659375 0.84003125
vt 0.38671875 0.801884375
vt 0.377659375 0.84003125
vt 0.395778125 0.84003125
vt 0.395778125 0.93378125
vt 0.377659375 0.93378125
vt 0.377659375 0.93378125
vt 0.395778125 0.93378125
vt 0.38671875 1
vt 0.39311875 0.59003125
vt 0.375 0.59003125
vt 0.384059375 0.551884375
vt 0.375 0.59003125
vt 0.39311875 0.59003125
vt 0.39311875 0.68378125
vt 0.375 0.68378125
vt 0.375 0.68378125
vt 0.39311875 0.68378125
vt 0.384059375 0.75
vt 0.333278125 0.49628125
vt 0.315159375 0.49628125
vt 0.32421875 0.458134375
vt 0.315159375 0.49628125
vt 0.333278125 0.49628125
vt 0.333278125 0.59003125
vt 0.315159375 0.59003125
vt 0.315159375 0.59003125
vt 0.333278125 0.59003125
vt 0.32421875 0.65625
vn 0.6931599324203166 0.49886035060729 0.52025730045722
vn 0 0 0
vn 0.4018756443652567 0.898573108510702 0.1762450995841409
vn 0.9789025406215719 0.19102179740870415 -0.07252922775943493
vn 0 0 0
vn 0.690166537067145 0.587989216705629 -0.4218279651121367
vn 0.7817968686984575 -0.34907412955666595 -0.5166632444518799
vn 0 0 0
vn 0.4913030547428784 0.0430766539287336 -0.8699228185802579
vn 0.2173047460428732 -0.8050465612549738 -0.5519770661529192
vn 0 0 0
vn -0.07822327172272837 -0.4169621908527584 -0.9055515728881818
vn -0.3839019977463166 -0.909793031265592 -0.15778433504931022
vn -0.4915096575624336 0.653103311203596 -0.5760853421306242
vn -0.6847916444146522 -0.5226428015843011 -0.5078433869727846
vn -0.6696446059475719 -0.6019544780670059 0.4350021931673446
vn 0 0 0
vn -0.9730825371165385 -0.2120589097792308 0.09022967772348854
vn -0.47253893402445757 -0.06185855110163645 0.8791362098597894
vn 0 0 0
vn -0.7742190547922726 0.33285365299766695 0.5383245311916119
vn 0.09195318863112678 0.39411388059667196 0.9144500315608288
vn 0 0 0
vn -0.20469272832666535 0.7928924977791592 0.5739532854995362
usemtl m_810e1978-31a2-eb6f-043a-f39e1e6dd5ea
f 23/81/25 21/82/25 19/83/25
f 21/84/26 23/85/26 24/86/26 22/87/26
f 22/88/27 24/89/27 20/90/27
f 25/91/28 23/92/28 19/93/28
f 23/94/29 25/95/29 26/96/29 24/97/29
f 24/98/30 26/99/30 20/100/30
f 27/101/31 25/102/31 19/103/31
f 25/104/32 27/105/32 28/106/32 26/107/32
f 26/108/33 28/109/33 20/110/33
f 29/111/34 27/112/34 19/113/34
f 27/114/35 29/115/35 30/116/35 28/117/35
f 28/118/36 30/119/36 20/120/36
f 31/121/37 29/122/37 19/123/37
f 29/124/38 31/125/38 32/126/38 30/127/38
f 30/128/39 32/129/39 20/130/39
f 33/131/40 31/132/40 19/133/40
f 31/134/41 33/135/41 34/136/41 32/137/41
f 32/138/42 34/139/42 20/140/42
f 35/141/43 33/142/43 19/143/43
f 33/144/44 35/145/44 36/146/44 34/147/44
f 34/148/45 36/149/45 20/150/45
f 21/151/46 35/152/46 19/153/46
f 35/154/47 21/155/47 22/156/47 36/157/47
f 36/158/48 22/159/48 20/160/48
o center_crystal
v 0.43496958502631705 -0.007722731798876142 0.5216499264907231
v 0.4574608316365685 0.4681992483428774 0.7187832652968962
v 0.49785104167430977 0.13688957576865834 0.6830245743486771
v 0.5014859906214211 0.2138062594279318 0.7148845078931092
v 0.5493732828625796 0.1128903904694181 0.5716095175344149
v 0.5557344435200244 0.24749458687314652 0.627364401237171
v 0.4951248299639763 0.10909920617772599 0.5869515357129088
v 0.5014859906214211 0.24370340258145443 0.6427064194156649
v 0.38662792416676967 0.11347569485575082 0.588764336678919
v 0.39298908482421446 0.24807989125947924 0.6445192203816751
v 0.33237947126816636 0.12164336782546778 0.5752351194664352
v 0.3387406319256112 0.25624756422919615 0.6309900031691913
v 0.3866279241667696 0.0835785517022282 0.6609424251563633
v 0.39298908482421446 0.200244462213843 0.760004161945586
vt 0.3203125 0.77565
vt 0.283565625 0.77565
vt 0.2999625 0.705025
vt 0.283565625 0.77565
vt 0.3203125 0.77565
vt 0.3203125 0.90065
vt 0.283565625 0.90065
vt 0.283565625 0.90065
vt 0.3203125 0.90065
vt 0.2999625 1
vt 0.036746875 0.43189999999999995
vt 0 0.43189999999999995
vt 0.02035 0.361275
vt 0 0.43189999999999995
vt 0.036746875 0.43189999999999995
vt 0.036746875 0.5569
vt 0 0.5569
vt 3.469446951953614e-18 0.5569
vt 0.036746875 0.5569
vt 0.02035 0.65625
vt 0.03886875 0.7761781249999999
vt 0.00019374999999999948 0.7761781249999999
vt 0.01953125 0.7062999999999999
vt 0.00019374999999999948 0.7761781249999999
vt 0.03886875 0.7761781249999999
vt 0.03886875 0.9011781249999999
vt 0.00019374999999999948 0.9011781249999999
vt 0.00019374999999999948 0.9011781249999999
vt 0.03886875 0.9011781249999999
vt 0.01953125 1
vt 0.2265625 0.77565
vt 0.189815625 0.77565
vt 0.2062125 0.705025
vt 0.189815625 0.77565
vt 0.2265625 0.77565
vt 0.2265625 0.90065
vt 0.189815625 0.90065
vt 0.18981562500000002 0.90065
vt 0.2265625 0.90065
vt 0.2062125 1
vt 0.130496875 0.43189999999999995
vt 0.09375 0.43189999999999995
vt 0.11410000000000001 0.361275
vt 0.09375 0.43189999999999995
vt 0.130496875 0.43189999999999995
vt 0.130496875 0.5569
vt 0.09375 0.5569
vt 0.09375 0.5569
vt 0.130496875 0.5569
vt 0.11410000000000001 0.65625
vt 0.13261875 0.7761781249999999
vt 0.09394374999999999 0.7761781249999999
vt 0.11328125 0.7062999999999999
vt 0.09394374999999999 0.7761781249999999
vt 0.13261875 0.7761781249999999
vt 0.13261875 0.9011781249999999
vt 0.09394374999999999 0.9011781249999999
vt 0.09394374999999999 0.9011781249999999
vt 0.13261875 0.9011781249999999
vt 0.11328125 1
vn 0.5677056649277116 -0.7106253636055494 0.41559820814034537
vn 0.864507336374923 -0.22667331213915196 0.44860480928964885
vn 0.818642166370652 0.13311197640024008 0.5586646625470308
vn -0.2602713444687697 0.5697559352412178 -0.7795107449585442
vn -0.276268357232046 0.3789045915886023 -0.8832367209674774
vn -0.2795717775803101 0.2585232849784726 -0.9246649838209108
vn 0.004999833367609502 0.4859592163647398 -0.8739671857092028
vn -1.6293971318098185e-17 0.38268343236508967 -0.9238795325112868
vn -0.0029015184871953696 0.3204387886940902 -0.9472647802440103
vn 0.27915941520037907 0.5479966731228769 -0.7885237264351918
vn 0.2762683572320464 0.35661666865405345 -0.8924686809240936
vn 0.26848417561370397 0.23641610453444303 -0.933822077786657
vn -0.7351068839322498 -0.6551585712528353 0.1743132688849629
vn -0.8604403185213818 -0.3017344506076118 0.41060781724091167
vn -0.8381743785345438 0.274198364773464 0.47146470485476427
vn 0.25070639579133946 -0.7674563334662385 0.5900483703323604
vn -2.4318925357758907e-16 -0.3826834323650898 0.9238795325112868
vn 0.3780085386957903 0.05125118919930745 0.9243824210134732
usemtl m_810e1978-31a2-eb6f-043a-f39e1e6dd5ea
f 41/161/49 39/162/49 37/163/49
f 39/164/50 41/165/50 42/166/50 40/167/50
f 40/168/51 42/169/51 38/170/51
f 43/171/52 41/172/52 37/173/52
f 41/174/53 43/175/53 44/176/53 42/177/53
f 42/178/54 44/179/54 38/180/54
f 45/181/55 43/182/55 37/183/55
f 43/184/56 45/185/56 46/186/56 44/187/56
f 44/188/57 46/189/57 38/190/57
f 47/191/58 45/192/58 37/193/58
f 45/194/59 47/195/59 48/196/59 46/197/59
f 46/198/60 48/199/60 38/200/60
f 49/201/61 47/202/61 37/203/61
f 47/204/62 49/205/62 50/206/62 48/207/62
f 48/208/63 50/209/63 38/210/63
f 39/211/64 49/212/64 37/213/64
f 49/214/65 39/215/65 40/216/65 50/217/65
f 50/218/66 40/219/66 38/220/66