# Made in Blockbench 4.7.0
mtllib marisa_hakkeiro.mtl

o bottom
v 2.4781763942525816e-18 0 -1.3877787807814457e-17
v 0.12944173824159222 0 0.3125
v 0.20710678118654754 0.3125 0.49999999999999994
v 0.3125 0 0.12944173824159222
v 0.5 0.3125 0.20710678118654757
v 0.3125 0 -0.12944173824159222
v 0.5 0.3125 -0.20710678118654752
v 0.12944173824159227 0 -0.3125
v 0.2071067811865476 0.3125 -0.5
v -0.1294417382415922 0 -0.3125
v -0.2071067811865475 0.3125 -0.5
v -0.31249999999999994 0 -0.12944173824159244
v -0.4999999999999999 0.3125 -0.20710678118654785
v -0.3125 0 0.12944173824159227
v -0.49999999999999994 0.3125 0.20710678118654766
v -0.1294417382415924 0 0.31249999999999994
v -0.20710678118654788 0.3125 0.4999999999999999
vt 0.375 0.7198609375
vt 0.3292359375 0.765625
vt 0.296875 0.6875
vt 0.4158625 0.90625
vt 0.480584375 0.90625
vt 0.5 1
vt 0.396446875 1
vt 0.375 0.6551390625
vt 0.375 0.7198609375
vt 0.296875 0.6875
vt 0.2879515625 0.796875
vt 0.3526734375 0.796875
vt 0.3720890625 0.890625
vt 0.2685359375 0.890625
vt 0.3292359375 0.609375
vt 0.375 0.6551390625
vt 0.296875 0.6875
vt 0.410040625 0.796875
vt 0.4747625 0.796875
vt 0.494178125 0.890625
vt 0.390625 0.890625
vt 0.2645140625 0.609375
vt 0.3292359375 0.609375
vt 0.296875 0.6875
vt 0.0223265625 0.640625
vt 0.0870484375 0.640625
vt 0.1064640625 0.734375
vt 0.002910937500000002 0.734375
vt 0.21875 0.6551390625
vt 0.2645140625 0.609375
vt 0.296875 0.6875
vt 0.4158625 0.578125
vt 0.480584375 0.578125
vt 0.5 0.671875
vt 0.396446875 0.671875
vt 0.21875 0.7198609375
vt 0.21875 0.6551390625
vt 0.296875 0.6875
vt 0.0223265625 0.53125
vt 0.0870484375 0.53125
vt 0.1064640625 0.625
vt 0.002910937500000002 0.625
vt 0.2645140625 0.765625
vt 0.21875 0.7198609375
vt 0.296875 0.6875
vt 0.410040625 0.6875
vt 0.4747625 0.6875
vt 0.494178125 0.78125
vt 0.390625 0.78125
vt 0.3292359375 0.765625
vt 0.2645140625 0.765625
vt 0.296875 0.6875
vt 0.2879515625 0.90625
vt 0.3526734375 0.90625
vt 0.3720890625 1
vt 0.2685359375 1
vn 0 -1 0
vn 0.6063390625908325 -0.5144957554275266 0.6063390625908325
vn 0 -1 0
vn 0.8574929257125443 -0.5144957554275266 0
vn 0 -1 0
vn 0.6063390625908325 -0.5144957554275266 -0.6063390625908324
vn 0 -1 0
vn 0 -0.5144957554275266 -0.8574929257125443
vn 0 -1 0
vn -0.6063390625908321 -0.5144957554275265 -0.6063390625908328
vn 0 -1 0
vn -0.8574929257125444 -0.5144957554275265 -1.8386812524921645e-16
vn 0 -1 0
vn -0.6063390625908325 -0.5144957554275267 0.6063390625908323
vn 0 -1 0
vn -1.8386812524921645e-16 -0.5144957554275263 0.8574929257125443
usemtl m_21072029-2cda-6839-816b-9944c50eecfd
f 4/1/1 2/2/1 1/3/1
f 2/4/2 4/5/2 5/6/2 3/7/2
f 6/8/3 4/9/3 1/10/3
f 4/11/4 6/12/4 7/13/4 5/14/4
f 8/15/5 6/16/5 1/17/5
f 6/18/6 8/19/6 9/20/6 7/21/6
f 10/22/7 8/23/7 1/24/7
f 8/25/8 10/26/8 11/27/8 9/28/8
f 12/29/9 10/30/9 1/31/9
f 10/32/10 12/33/10 13/34/10 11/35/10
f 14/36/11 12/37/11 1/38/11
f 12/39/12 14/40/12 15/41/12 13/42/12
f 16/43/13 14/44/13 1/45/13
f 14/46/14 16/47/14 17/48/14 15/49/14
f 2/50/15 16/51/15 1/52/15
f 16/53/16 2/54/16 3/55/16 17/56/16
o cylinder
v 0 0.5 0
v 0.20710678118654754 0.3125 0.5
v 0.20710678118654754 0.5 0.5
v 0.5 0.3125 0.20710678118654757
v 0.5 0.5 0.20710678118654757
v 0.5 0.3125 -0.20710678118654752
v 0.5 0.5 -0.20710678118654752
v 0.2071067811865476 0.3125 -0.5
v 0.2071067811865476 0.5 -0.5
v -0.2071067811865475 0.3125 -0.5000000000000001
v -0.2071067811865475 0.5 -0.5000000000000001
v -0.4999999999999999 0.3125 -0.20710678118654785
v -0.4999999999999999 0.5 -0.20710678118654785
v -0.49999999999999994 0.3125 0.20710678118654766
v -0.49999999999999994 0.5 0.20710678118654766
v -0.20710678118654788 0.3125 0.4999999999999999
v -0.20710678118654788 0.5 0.4999999999999999
vt 0.484375 0.453125
vt 0.59375 0.453125
vt 0.59375 0.5
vt 0.484375 0.5
vt 0.1767765625 0.75
vt 0.25 0.8232234375
vt 0.125 0.875
vt 0.125 0.546875
vt 0.234375 0.546875
vt 0.234375 0.59375
vt 0.125 0.59375
vt 0.25 0.8232234375
vt 0.25 0.9267765625
vt 0.125 0.875
vt 0.359375 0.453125
vt 0.46875 0.453125
vt 0.46875 0.5
vt 0.359375 0.5
vt 0.25 0.9267765625
vt 0.1767765625 1
vt 0.125 0.875
vt 0.109375 0.484375
vt 0.21875 0.484375
vt 0.21875 0.53125
vt 0.109375 0.53125
vt 0.1767765625 1
vt 0.0732234375 1
vt 0.125 0.875
vt 0.5 0.53125
vt 0.609375 0.53125
vt 0.609375 0.578125
vt 0.5 0.578125
vt 0.0732234375 1
vt 0 0.9267765625
vt 0.125 0.875
vt 0.25 0.546875
vt 0.359375 0.546875
vt 0.359375 0.59375
vt 0.25 0.59375
vt 0 0.9267765625
vt 0 0.8232234375
vt 0.125 0.875
vt 0.234375 0.484375
vt 0.34375 0.484375
vt 0.34375 0.53125
vt 0.234375 0.53125
vt 0 0.8232234375
vt 0.0732234375 0.75
vt 0.125 0.875
vt 0.375 0.515625
vt 0.484375 0.515625
vt 0.484375 0.5625
vt 0.375 0.5625
vt 0.0732234375 0.75
vt 0.1767765625 0.75
vt 0.125 0.875
vn 0.7071067811865476 0 0.7071067811865476
vn 0 1 0
vn 1 0 0
vn 0 1 0
vn 0.7071067811865476 0 -0.7071067811865475
vn 0 1 0
vn 2.6803154833089315e-16 0 -1
vn 0 1 0
vn -0.7071067811865474 0 -0.7071067811865478
vn 0 1 0
vn -1 0 -1.3401577416544643e-16
vn 0 1 0
vn -0.7071067811865477 0 0.7071067811865475
vn 0 1 0
vn -2.680315483308929e-16 0 1
vn 0 1 0
usemtl m_21072029-2cda-6839-816b-9944c50eecfd
f 19/57/17 21/58/17 22/59/17 20/60/17
f 20/61/18 22/62/18 18/63/18
f 21/64/19 23/65/19 24/66/19 22/67/19
f 22/68/20 24/69/20 18/70/20
f 23/71/21 25/72/21 26/73/21 24/74/21
f 24/75/22 26/76/22 18/77/22
f 25/78/23 27/79/23 28/80/23 26/81/23
f 26/82/24 28/83/24 18/84/24
f 27/85/25 29/86/25 30/87/25 28/88/25
f 28/89/26 30/90/26 18/91/26
f 29/92/27 31/93/27 32/94/27 30/95/27
f 30/96/28 32/97/28 18/98/28
f 31/99/29 33/100/29 34/101/29 32/102/29
f 32/103/30 34/104/30 18/105/30
f 33/106/31 19/107/31 20/108/31 34/109/31
f 34/110/32 20/111/32 18/112/32