# Made in Blockbench 4.5.2
mtllib rail_wrench.mtl

o handle
v 0.0625 0.09375 -0.1875
v -0.062499999999999944 0.09375 -0.1875
v 0.0625 0.03125 -0.1875
v -0.062499999999999944 0.03125 -0.1875
v -0.06250000000000011 0.09375 0.5
v 0.06249999999999989 0.09375 0.5
v -0.06250000000000011 0.03125 0.5
v 0.06249999999999989 0.03125 0.5
vt 0 0.875
vt 0.34375 0.875
vt 0.34375 0.84375
vt 0 0.84375
vt 0.21875 0.75
vt 0.28125 0.75
vt 0.28125 0.71875
vt 0.21875 0.71875
vt 0 0.84375
vt 0.34375 0.84375
vt 0.34375 0.8125
vt 0 0.8125
vt 0.34375 0.84375
vt 0.40625 0.84375
vt 0.40625 0.8125
vt 0.34375 0.8125
vt 0.34375 0.9375
vt 0 0.9375
vt 0 1
vt 0.34375 1
vt 0.34375 0.9375
vt 0 0.9375
vt 0 0.875
vt 0.34375 0.875
vn -1 0 -2.220446049250313e-16
vn 2.220446049250313e-16 0 -1
vn 1 0 2.220446049250313e-16
vn -2.220446049250313e-16 0 1
vn 0 1 0
vn 0 -1 0
usemtl m_3fe5aeae-bb83-8760-5729-6d36e5c0295e
f 4/4/1 7/3/1 5/2/1 2/1/1
f 3/8/2 4/7/2 2/6/2 1/5/2
f 8/12/3 3/11/3 1/10/3 6/9/3
f 7/16/4 8/15/4 6/14/4 5/13/4
f 6/20/5 1/19/5 2/18/5 5/17/5
f 7/24/6 4/23/6 3/22/6 8/21/6
o left
v -0.12500000000000033 0.093750000000001 -0.40624999999999994
v -0.06250000000000033 0.09375000000000044 -0.40625
v -0.12500000000000033 0.093750000000001 -0.28124999999999994
v -0.06250000000000028 0.09375000000000044 -0.28125
v -0.06250000000000089 0.031250000000000444 -0.40625
v -0.1250000000000009 0.031250000000001 -0.40624999999999994
v -0.06250000000000078 0.031250000000000444 -0.28125
v -0.12500000000000078 0.031250000000001 -0.28124999999999994
vt 0.09375 0.5625
vt 0.125 0.5625
vt 0.125 0.5
vt 0.09375 0.5
vt 0.4375 0.90625
vt 0.46875 0.90625
vt 0.46875 0.84375
vt 0.4375 0.84375
vt 0.125 0.5625
vt 0.15625 0.5625
vt 0.15625 0.5
vt 0.125 0.5
vt 0.15625 0.5625
vt 0.1875 0.5625
vt 0.1875 0.5
vt 0.15625 0.5
vt 0.28125 0.65625
vt 0.25 0.65625
vt 0.25 0.6875
vt 0.28125 0.6875
vt 0.34375 0.75
vt 0.3125 0.75
vt 0.3125 0.71875
vt 0.34375 0.71875
vn 1 -7.993605777301127e-15 -4.996003610813204e-16
vn 7.993605777301127e-15 1 -3.993608332681372e-30
vn -1 7.993605777301127e-15 4.996003610813204e-16
vn -7.993605777301127e-15 -1 3.993608332681372e-30
vn -5.551115123125787e-16 -5.551115123125339e-17 -1
vn 5.551115123125787e-16 5.551115123125339e-17 1
usemtl m_3fe5aeae-bb83-8760-5729-6d36e5c0295e
f 12/28/7 15/27/7 13/26/7 10/25/7
f 11/32/8 12/31/8 10/30/8 9/29/8
f 16/36/9 11/35/9 9/34/9 14/33/9
f 15/40/10 16/39/10 14/38/10 13/37/10
f 14/44/11 9/43/11 10/42/11 13/41/11
f 15/48/12 12/47/12 11/46/12 16/45/12
o right
v 0.06249999999999967 0.09374999999999956 -0.40625
v 0.12499999999999967 0.093749999999999 -0.40625
v 0.06249999999999978 0.09374999999999956 -0.28125
v 0.12499999999999978 0.093749999999999 -0.28125
v 0.12499999999999922 0.031249999999999 -0.40625
v 0.06249999999999922 0.031249999999999556 -0.40625
v 0.12499999999999922 0.031249999999999 -0.28125
v 0.06249999999999922 0.031249999999999556 -0.28125
vt 0.15625 0.65625
vt 0.1875 0.65625
vt 0.1875 0.59375
vt 0.15625 0.59375
vt 0.09375 0.625
vt 0.125 0.625
vt 0.125 0.5625
vt 0.09375 0.5625
vt 0.40625 0.84375
vt 0.4375 0.84375
vt 0.4375 0.78125
vt 0.40625 0.78125
vt 0.0625 0.5625
vt 0.09375 0.5625
vt 0.09375 0.5
vt 0.0625 0.5
vt 0.125 0.75
vt 0.09375 0.75
vt 0.09375 0.78125
vt 0.125 0.78125
vt 0.0625 0.71875
vt 0.03125 0.71875
vt 0.03125 0.6875
vt 0.0625 0.6875
vn 1 -8.104628079763644e-15 -1.1102230246251565e-16
vn 8.049116928532386e-15 1 -8.936314941956776e-31
vn -1 8.104628079763644e-15 1.1102230246251565e-16
vn -8.049116928532386e-15 -1 8.936314941956776e-31
vn -2.2204460492503224e-16 -1.1102230246251387e-16 -1
vn 2.2204460492503224e-16 1.1102230246251387e-16 1
usemtl m_3fe5aeae-bb83-8760-5729-6d36e5c0295e
f 20/52/13 23/51/13 21/50/13 18/49/13
f 19/56/14 20/55/14 18/54/14 17/53/14
f 24/60/15 19/59/15 17/58/15 22/57/15
f 23/64/16 24/63/16 22/62/16 21/61/16
f 22/68/17 17/67/17 18/66/17 21/65/17
f 23/72/18 20/71/18 19/70/18 24/69/18
o cylinder
v 0 0.06250000000000004 -0.1875
v 0 0.06250000000000006 -0.28125
v 0.03349364905389033 0.18750000000000006 -0.18749999999999994
v 0.03349364905389033 0.18750000000000006 -0.28124999999999994
v 0.09150635094610965 0.1540063509461097 -0.18749999999999997
v 0.09150635094610965 0.1540063509461097 -0.28124999999999994
v 0.125 0.09599364905389036 -0.18749999999999997
v 0.125 0.09599364905389038 -0.28125
v 0.125 0.029006350946109698 -0.1875
v 0.125 0.02900635094610972 -0.28125
v 0.09150635094610966 -0.029006350946109608 -0.1875
v 0.09150635094610966 -0.029006350946109587 -0.28125
v 0.033493649053890365 -0.06249999999999993 -0.1875
v 0.033493649053890365 -0.06249999999999991 -0.28125
v -0.03349364905389028 -0.06249999999999996 -0.1875
v -0.03349364905389028 -0.06249999999999994 -0.28125
v -0.09150635094610965 -0.02900635094610962 -0.1875
v -0.09150635094610965 -0.0290063509461096 -0.28125
v -0.125 0.029006350946109725 -0.1875
v -0.125 0.029006350946109746 -0.28125
v -0.125 0.09599364905389031 -0.18749999999999997
v -0.125 0.09599364905389032 -0.28125
v -0.09150635094610966 0.15400635094610965 -0.18749999999999997
v -0.09150635094610966 0.15400635094610968 -0.28124999999999994
v -0.03349364905389032 0.18750000000000006 -0.18749999999999994
v -0.03349364905389032 0.18750000000000006 -0.28124999999999994
vt 0.2522046898959515 0.625
vt 0.2435360027003427 0.6573523449479758
vt 0.1875 0.625
vt 0.46875 0.9375
vt 0.5 0.9375
vt 0.5 1
vt 0.46875 1
vt 0 0.5290452256609636
vt 0.032352302726488404 0.5377140704295458
vt 8.673617379884035e-18 0.59375
vt 0.18970477433903643 0.65625
vt 0.18103592957045417 0.6886023027264885
vt 0.125 0.65625
vt 0.34375 0.5
vt 0.375 0.5
vt 0.375 0.5625
vt 0.34375 0.5625
vt 0.34375 0.9352953101040484
vt 0.3761023449479758 0.9439639972996573
vt 0.34375 1
vt 0.18103592957045417 0.75
vt 0.18970477433903643 0.7823524716125481
vt 0.125 0.7823524716125481
vt 0.4375 0.78125
vt 0.46875 0.78125
vt 0.46875 0.84375
vt 0.4375 0.84375
vt 0.14978592957045417 0.7176475283874519
vt 0.15845477433903643 0.75
vt 0.09375 0.75
vt 0.03125 0.5625
vt 0.06360234494797576 0.5711686871956089
vt 0.03125 0.6272046898959516
vt 0.375 0.5
vt 0.40625 0.5
vt 0.40625 0.5625
vt 0.375 0.5625
vt 0.40845477433903643 0.8738976972735115
vt 0.39978592957045417 0.90625
vt 0.34375 0.8738976972735116
vt 0.125 0.5625
vt 0.15735230272648842 0.5711688447685822
vt 0.125 0.6272047743390364
vt 0.03125 0.46875
vt 0.0625 0.46875
vt 0.0625 0.53125
vt 0.03125 0.53125
vt 0.4084546898959515 0.7488976550520243
vt 0.3997860027003427 0.78125
vt 0.34375 0.7488976550520242
vt 0 0.7274188447685823
vt 0.032352471612548006 0.71875
vt 0.03235247161254802 0.7834547743390364
vt 0.4375 0.71875
vt 0.46875 0.71875
vt 0.46875 0.78125
vt 0.4375 0.78125
vt 0.09485247161254802 0.8038311552314178
vt 0.06250000000000001 0.8125
vt 0.0625 0.7477952256609636
vt 0.1875 0.5948523449479757
vt 0.19616868719560884 0.5625
vt 0.2522046898959515 0.5948523449479758
vt 0.40625 0.5
vt 0.4375 0.5
vt 0.4375 0.5625
vt 0.40625 0.5625
vt 0.3136023027264884 0.625
vt 0.28125 0.6163311552314178
vt 0.31360230272648837 0.5602952256609636
vt 0.34375 0.5948523027264885
vt 0.3524188447685822 0.5625
vt 0.40845477433903643 0.5948523027264885
vt 0.4375 0.5625
vt 0.46875 0.5625
vt 0.46875 0.625
vt 0.4375 0.625
vt 0.4386023449479758 1
vt 0.40625 0.9913313128043911
vt 0.4386023449479758 0.9352953101040484
vt 0.19616884476858223 0.7198524716125481
vt 0.1875 0.6875
vt 0.25220477433903643 0.6875
vt 0.1875 0.5
vt 0.21875 0.5
vt 0.21875 0.5625
vt 0.1875 0.5625
vt 0.22741884476858223 0.8125
vt 0.21875 0.7801475283874519
vt 0.28345477433903643 0.7801475283874519
vt 0.3136023027264884 0.7122859295704542
vt 0.28125 0.7209547743390364
vt 0.28125 0.65625
vt 0.25 0.5
vt 0.28125 0.5
vt 0.28125 0.5625
vt 0.25 0.5625
vt 0.3125 0.8125
vt 0.3211688447685822 0.7801476972735115
vt 0.37720477433903643 0.8125
vt 0.4386023027264884 0.6897047743390364
vt 0.40625 0.6810359295704542
vt 0.43860230272648837 0.625
vt 0.4375 0.5
vt 0.46875 0.5
vt 0.46875 0.5625
vt 0.4375 0.5625
vt 0.3211688447685822 0.6875
vt 0.3125 0.6551476972735115
vt 0.37720477433903643 0.6551476972735117
vt 0.03235247161254801 0.6810359295704542
vt 8.673617379884035e-18 0.6897047743390364
vt 0 0.625
vt 0.21875 0.5
vt 0.25 0.5
vt 0.25 0.5625
vt 0.21875 0.5625
vt 0.0625 0.6627140704295458
vt 0.094852471612548 0.6540452256609636
vt 0.094852471612548 0.71875
vn 0 -2.220446049250313e-16 1
vn 0.5000000000000002 0.8660254037844387 1.922962686383564e-16
vn 0 2.220446049250313e-16 -1
vn 0 -2.220446049250313e-16 1
vn 0.8660254037844386 0.5000000000000001 1.1102230246251568e-16
vn 0 2.220446049250313e-16 -1
vn 0 -2.220446049250313e-16 1
vn 1 0 0
vn 0 2.220446049250313e-16 -1
vn 0 -2.220446049250313e-16 1
vn 0.8660254037844386 -0.5000000000000001 -1.1102230246251568e-16
vn 0 2.220446049250313e-16 -1
vn 0 -2.220446049250313e-16 1
vn 0.5 -0.8660254037844387 -1.922962686383564e-16
vn 0 2.220446049250313e-16 -1
vn 0 -2.220446049250313e-16 1
vn 4.143408735633879e-16 -1 -2.220446049250313e-16
vn 0 2.220446049250313e-16 -1
vn 0 -2.220446049250313e-16 1
vn -0.49999999999999967 -0.8660254037844388 -1.9229626863835643e-16
vn 0 2.220446049250313e-16 -1
vn 0 -2.220446049250313e-16 1
vn -0.8660254037844388 -0.5000000000000001 -1.1102230246251568e-16
vn 0 2.220446049250313e-16 -1
vn 0 -2.220446049250313e-16 1
vn -1 0 0
vn 0 2.220446049250313e-16 -1
vn 0 -2.220446049250313e-16 1
vn -0.8660254037844388 0.4999999999999998 1.110223024625156e-16
vn 0 2.220446049250313e-16 -1
vn 0 -2.220446049250313e-16 1
vn -0.5000000000000004 0.8660254037844386 1.9229626863835638e-16
vn 0 2.220446049250313e-16 -1
vn 0 -2.220446049250313e-16 1
vn 0 1 2.220446049250313e-16
vn 0 2.220446049250313e-16 -1
usemtl m_3fe5aeae-bb83-8760-5729-6d36e5c0295e
f 29/73/19 27/74/19 25/75/19
f 27/76/20 29/77/20 30/78/20 28/79/20
f 28/80/21 30/81/21 26/82/21
f 31/83/22 29/84/22 25/85/22
f 29/86/23 31/87/23 32/88/23 30/89/23
f 30/90/24 32/91/24 26/92/24
f 33/93/25 31/94/25 25/95/25
f 31/96/26 33/97/26 34/98/26 32/99/26
f 32/100/27 34/101/27 26/102/27
f 35/103/28 33/104/28 25/105/28
f 33/106/29 35/107/29 36/108/29 34/109/29
f 34/110/30 36/111/30 26/112/30
f 37/113/31 35/114/31 25/115/31
f 35/116/32 37/117/32 38/118/32 36/119/32
f 36/120/33 38/121/33 26/122/33
f 39/123/34 37/124/34 25/125/34
f 37/126/35 39/127/35 40/128/35 38/129/35
f 38/130/36 40/131/36 26/132/36
f 41/133/37 39/134/37 25/135/37
f 39/136/38 41/137/38 42/138/38 40/139/38
f 40/140/39 42/141/39 26/142/39
f 43/143/40 41/144/40 25/145/40
f 41/146/41 43/147/41 44/148/41 42/149/41
f 42/150/42 44/151/42 26/152/42
f 45/153/43 43/154/43 25/155/43
f 43/156/44 45/157/44 46/158/44 44/159/44
f 44/160/45 46/161/45 26/162/45
f 47/163/46 45/164/46 25/165/46
f 45/166/47 47/167/47 48/168/47 46/169/47
f 46/170/48 48/171/48 26/172/48
f 49/173/49 47/174/49 25/175/49
f 47/176/50 49/177/50 50/178/50 48/179/50
f 48/180/51 50/181/51 26/182/51
f 27/183/52 49/184/52 25/185/52
f 49/186/53 27/187/53 28/188/53 50/189/53
f 50/190/54 28/191/54 26/192/54